<?xml version="1.0" encoding="utf-8"?>
<!-- Generator: Adobe Illustrator 18.0.0, SVG Export Plug-In . SVG Version: 6.00 Build 0)  -->
<!DOCTYPE svg PUBLIC "-//W3C//DTD SVG 1.1//EN" "http://www.w3.org/Graphics/SVG/1.1/DTD/svg11.dtd">
<svg version="1.1" id="Layer_1" xmlns:sketch="http://www.bohemiancoding.com/sketch/ns"
	 xmlns="http://www.w3.org/2000/svg" xmlns:xlink="http://www.w3.org/1999/xlink" x="0px" y="0px" width="26px" height="34px"
	 viewBox="0 0 26 34" enable-background="new 0 0 26 34" xml:space="preserve">
<g>
	<path id="Oval-162" fill="#327E88" d="M13,33c0,0,12-13.4,12-20S19.6,1,13,1S1,6.4,1,13S13,33,13,33z"/>
	<g>
		<ellipse fill="#FFFFFF" cx="13" cy="12.9" rx="1.4" ry="1.3"/>
		<path fill="#FFFFFF" d="M18.1,8.4h-1.4l-0.5-1C16,7,15.4,6.6,14.9,6.6h-3.7c-0.5,0-1.1,0.3-1.3,0.8l-0.5,1H7.9
			C7.1,8.4,6.5,9,6.5,9.8V16c0,0.8,0.6,1.4,1.4,1.4H18c0.8,0,1.4-0.6,1.4-1.4V9.8C19.5,9.1,18.9,8.4,18.1,8.4z M13,15.9
			c-1.6,0-3-1.3-3-2.9s1.3-2.9,3-2.9s3,1.3,3,2.9S14.6,15.9,13,15.9z"/>
	</g>
</g>
</svg>
