<?xml version="1.0" encoding="UTF-8" standalone="no"?>
<svg width="24px" height="16px" viewBox="0 0 24 16" version="1.1" xmlns="http://www.w3.org/2000/svg" xmlns:xlink="http://www.w3.org/1999/xlink" xmlns:sketch="http://www.bohemiancoding.com/sketch/ns">
    <!-- Generator: Sketch 3.0.3 (7891) - http://www.bohemiancoding.com/sketch -->
    <title>Rectangle 183 + Rectangle 183</title>
    <desc>Created with Sketch.</desc>
    <defs></defs>
    <g id="Page-1" stroke="none" stroke-width="1" fill="none" fill-rule="evenodd" sketch:type="MSPage">
        <g id="L-•-HOMEPAGE" sketch:type="MSArtboardGroup" transform="translate(-240.000000, -856.000000)" fill="#9AA4AA">
            <g id="Group" sketch:type="MSLayerGroup" transform="translate(128.000000, 848.000000)">
                <g id="Rectangle-183-+-Rectangle-183" sketch:type="MSShapeGroup">
                    <g transform="translate(112.000000, 8.000000)">
                        <path d="M17.0052393,6.03019712 C15.0296693,6.27391771 13.5,7.96277766 13.5,9.99582624 L13.5,12.9978137 C13.5,13.7796899 13.679759,14.5196679 14,15.1788357 L14,15 L15,15 L15,9 L16,9 L16,15 C16,15.5522847 16.4437166,16 16.9998075,16 L20.0001925,16 C20.5523709,16 21,15.5561352 21,15 L21,9 L22,9 L22,15 L23,15 L23,15.185445 C23.3203291,14.5254533 23.5,13.7834733 23.5,12.9978137 L23.5,9.99582624 C23.5,7.95496778 21.9757097,6.27146287 19.9948355,6.02977502 C19.9396012,6.34173448 19.4413227,9 18.5,9 C17.5591004,9 17.0608468,6.3441237 17.0052393,6.03019712 Z M16.7184088,4.5 C17.1718689,5.08685657 17.8025848,5.5 18.5,5.5 C19.1974152,5.5 19.8281311,5.08685657 20.2815912,4.5 L20.2815912,4.5 L20.5,4.5 C21,4.5 22,5 22,4.5 C22,4 21,3 21,2.5 C21,1.11928813 19.8807119,0 18.5,0 C17.1192881,0 16,1.11928813 16,2.5 C16,3 15,4 15,4.5 C15,5 16,4.5 16.5,4.5 L16.7184088,4.5 L16.7184088,4.5 Z" id="Rectangle-183"></path>
                        <path d="M3,15 L3,9 L2,9 L2,15 L1,15 L1,15.1788357 C0.679759048,14.5196679 0.5,13.7796899 0.5,12.9978137 L0.5,9.99582624 C0.5,7.79652125 2.29008215,6 4.49826039,6 L4.509763,6 L6.50305888,6 C8.71769831,6 10.5,7.78899235 10.5,9.99582624 L10.5,12.9978137 C10.5,13.7834733 10.3203291,14.5254533 10,15.185445 L10,15 L9,15 L9,9 L8,9 L8,15 C8,15.5561352 7.55237094,16 7.00019251,16 L3.99980749,16 C3.44371665,16 3,15.5522847 3,15 Z M5.5,5 C6.88071187,5 8,3.88071187 8,2.5 C8,1.11928813 6.88071187,0 5.5,0 C4.11928813,0 3,1.11928813 3,2.5 C3,3.88071187 4.11928813,5 5.5,5 Z M5,6 L4.5,12 L5.5,13 L6.5,12 L6,6 L5,6 Z" id="Rectangle-183"></path>
                    </g>
                </g>
            </g>
        </g>
    </g>
</svg>