<?xml version="1.0" encoding="utf-8"?>
<!-- Generator: Adobe Illustrator 17.1.0, SVG Export Plug-In . SVG Version: 6.00 Build 0)  -->
<!DOCTYPE svg PUBLIC "-//W3C//DTD SVG 1.1//EN" "http://www.w3.org/Graphics/SVG/1.1/DTD/svg11.dtd">
<svg version="1.1" id="Layer_1" xmlns="http://www.w3.org/2000/svg" xmlns:xlink="http://www.w3.org/1999/xlink" x="0px" y="0px"
	 width="95px" height="22px" viewBox="0 0 95 22" enable-background="new 0 0 95 22" xml:space="preserve">
<g opacity="0.2">
	<line fill="none" stroke="#000000" stroke-miterlimit="10" x1="-20.4" y1="22.9" x2="3.3" y2="-0.8"/>
	<g>
		<line fill="none" stroke="#000000" stroke-miterlimit="10" x1="-15.4" y1="22.9" x2="8.3" y2="-0.8"/>
	</g>
	<g>
		<line fill="none" stroke="#000000" stroke-miterlimit="10" x1="-10.4" y1="22.9" x2="13.3" y2="-0.8"/>
	</g>
	<g>
		<line fill="none" stroke="#000000" stroke-miterlimit="10" x1="-5.4" y1="22.9" x2="18.3" y2="-0.8"/>
	</g>
	<g>
		<line fill="none" stroke="#000000" stroke-miterlimit="10" x1="-0.4" y1="22.9" x2="23.3" y2="-0.8"/>
	</g>
	<g>
		<line fill="none" stroke="#000000" stroke-miterlimit="10" x1="4.6" y1="22.9" x2="28.3" y2="-0.8"/>
	</g>
	<g>
		<line fill="none" stroke="#000000" stroke-miterlimit="10" x1="9.6" y1="22.9" x2="33.3" y2="-0.8"/>
	</g>
	<g>
		<line fill="none" stroke="#000000" stroke-miterlimit="10" x1="14.6" y1="22.9" x2="38.3" y2="-0.8"/>
	</g>
	<g>
		<line fill="none" stroke="#000000" stroke-miterlimit="10" x1="19.6" y1="22.9" x2="43.3" y2="-0.8"/>
	</g>
	<g>
		<line fill="none" stroke="#000000" stroke-miterlimit="10" x1="24.6" y1="22.9" x2="48.3" y2="-0.8"/>
	</g>
	<g>
		<line fill="none" stroke="#000000" stroke-miterlimit="10" x1="29.6" y1="22.9" x2="53.3" y2="-0.8"/>
	</g>
	<g>
		<line fill="none" stroke="#000000" stroke-miterlimit="10" x1="34.6" y1="22.9" x2="58.3" y2="-0.8"/>
	</g>
	<g>
		<line fill="none" stroke="#000000" stroke-miterlimit="10" x1="39.6" y1="22.9" x2="63.3" y2="-0.8"/>
	</g>
	<g>
		<line fill="none" stroke="#000000" stroke-miterlimit="10" x1="44.6" y1="22.9" x2="68.3" y2="-0.8"/>
	</g>
	<g>
		<line fill="none" stroke="#000000" stroke-miterlimit="10" x1="49.6" y1="22.9" x2="73.3" y2="-0.8"/>
	</g>
	<g>
		<line fill="none" stroke="#000000" stroke-miterlimit="10" x1="54.6" y1="22.9" x2="78.3" y2="-0.8"/>
	</g>
	<g>
		<line fill="none" stroke="#000000" stroke-miterlimit="10" x1="59.6" y1="22.9" x2="83.3" y2="-0.8"/>
	</g>
	<g>
		<line fill="none" stroke="#000000" stroke-miterlimit="10" x1="64.6" y1="22.9" x2="88.3" y2="-0.8"/>
	</g>
	<g>
		<line fill="none" stroke="#000000" stroke-miterlimit="10" x1="69.6" y1="22.9" x2="93.3" y2="-0.8"/>
	</g>
	<g>
		<line fill="none" stroke="#000000" stroke-miterlimit="10" x1="74.6" y1="22.9" x2="98.3" y2="-0.8"/>
	</g>
	<g>
		<line fill="none" stroke="#000000" stroke-miterlimit="10" x1="79.6" y1="22.9" x2="103.3" y2="-0.8"/>
	</g>
	<g>
		<line fill="none" stroke="#000000" stroke-miterlimit="10" x1="84.6" y1="22.9" x2="108.3" y2="-0.8"/>
	</g>
	<g>
		<line fill="none" stroke="#000000" stroke-miterlimit="10" x1="89.6" y1="22.9" x2="113.3" y2="-0.8"/>
	</g>
</g>
<g opacity="0.2">
	<defs>
		<rect id="SVGID_1_" x="-557" y="-616.7" opacity="0.2" width="1184" height="2400"/>
	</defs>
	<clipPath id="SVGID_2_">
		<use xlink:href="#SVGID_1_"  overflow="visible"/>
	</clipPath>
</g>
</svg>
