<?xml version="1.0" encoding="UTF-8" standalone="no"?>
<svg width="23px" height="18px" viewBox="0 0 23 18" version="1.1" xmlns="http://www.w3.org/2000/svg" xmlns:xlink="http://www.w3.org/1999/xlink" xmlns:sketch="http://www.bohemiancoding.com/sketch/ns">
    <!-- Generator: Sketch 3.0.3 (7891) - http://www.bohemiancoding.com/sketch -->
    <title>Oval 118 + Rectangle 184 + Oval 116</title>
    <desc>Created with Sketch.</desc>
    <defs>
        <path id="path-1" d="M10,18 C15.5228475,18 20,13.9705627 20,9 C20,4.02943725 15.5228475,0 10,0 C4.4771525,0 0,4.02943725 0,9 C0,13.9705627 4.4771525,18 10,18 Z"></path>
    </defs>
    <g id="Page-1" stroke="none" stroke-width="1" fill="none" fill-rule="evenodd" sketch:type="MSPage">
        <g id="L-•-HOMEPAGE" sketch:type="MSArtboardGroup" transform="translate(-345.000000, -855.000000)">
            <g id="Group" sketch:type="MSLayerGroup" transform="translate(128.000000, 848.000000)">
                <g id="Oval-118-+-Rectangle-184-+-Oval-116">
                    <g transform="translate(217.000000, 7.000000)">
                        <g id="Oval-118-+-Rectangle-184">
                            <mask id="mask-2" sketch:name="Oval 118" fill="white">
                                <use xlink:href="#path-1"></use>
                            </mask>
                            <g id="Oval-118"></g>
                            <path d="M8,19 L6,19 L6,19.1788357 C5.67975905,18.5196679 5.5,17.7796899 5.5,16.9978137 L5.5,13.9958262 C5.5,11.7965212 7.29008215,10 9.49826039,10 L9.509763,10 L11.5030589,10 C13.7176983,10 15.5,11.7889923 15.5,13.9958262 L15.5,16.9978137 C15.5,17.7834733 15.3203291,18.5254533 15,19.185445 L15,19.185445 L15,19 L13,19 C13,19.5561352 12.5523709,20 12.0001925,20 L8.99980749,20 C8.44371665,20 8,19.5522847 8,19 Z M10.5,9 C11.8807119,9 13,7.88071187 13,6.5 C13,5.11928813 11.8807119,4 10.5,4 C9.11928813,4 8,5.11928813 8,6.5 C8,7.88071187 9.11928813,9 10.5,9 Z M10,10 L9.5,16 L10.5,17 L11.5,16 L11,10 L10,10 Z" id="Rectangle-184" fill="#9AA4AA" sketch:type="MSShapeGroup" mask="url(#mask-2)"></path>
                        </g>
                        <path d="M15.3150691,17 C13.87279,17.6390692 12.23557,18 10.5,18 C4.70101013,18 0,13.9705627 0,9 C0,4.02943725 4.70101013,0 10.5,0 C16.2989899,0 21,4.02943725 21,9 C21,10.6627506 20.4739412,12.220186 19.556699,13.556699 L23,17 L15.3150691,17 Z" id="Oval-116" stroke="#959FA6" sketch:type="MSShapeGroup"></path>
                    </g>
                </g>
            </g>
        </g>
    </g>
</svg>