<?xml version="1.0" encoding="UTF-8" standalone="no"?>
<svg width="20px" height="20px" viewBox="0 0 20 20" version="1.1" xmlns="http://www.w3.org/2000/svg" xmlns:xlink="http://www.w3.org/1999/xlink" xmlns:sketch="http://www.bohemiancoding.com/sketch/ns">
    <!-- Generator: Sketch 3.0.3 (7891) - http://www.bohemiancoding.com/sketch -->
    <title>Fill 15</title>
    <desc>Created with Sketch.</desc>
    <defs></defs>
    <g id="Page-1" stroke="none" stroke-width="1" fill="none" fill-rule="evenodd" sketch:type="MSPage">
        <g id="L-•-HOMEPAGE" sketch:type="MSArtboardGroup" transform="translate(-1034.000000, -854.000000)" fill="#959FA6">
            <g id="Group" sketch:type="MSLayerGroup" transform="translate(128.000000, 848.000000)">
                <g id="Fill-15" sketch:type="MSShapeGroup">
                    <g transform="translate(713.000000, 5.000000)">
                        <path d="M203.938652,20.9920599 L194.103446,20.9920599 C193.493858,20.9920599 193,20.4980524 193,19.8886891 L193,2.10337079 C193,1.49385768 193.493858,1 194.103446,1 L211.888614,1 C212.497978,1 212.991985,1.49385768 212.991985,2.10337079 L212.991985,19.8886891 C212.991985,20.4980524 212.497978,20.9920599 211.888614,20.9920599 L207.054457,20.9920599 L207.054457,13.56397 L209.653109,13.56397 L210.042172,10.5467416 L207.054457,10.5467416 L207.054457,8.62037453 C207.054457,7.74681648 207.297004,7.15153558 208.549738,7.15153558 L210.147491,7.15078652 L210.147491,4.45220974 C209.871011,4.41550562 208.922697,4.33333333 207.819326,4.33333333 C205.51573,4.33333333 203.938652,5.73940075 203.938652,8.32164794 L203.938652,10.5467416 L201.333333,10.5467416 L201.333333,13.56397 L203.938652,13.56397 L203.938652,20.9920599 Z"></path>
                    </g>
                </g>
            </g>
        </g>
    </g>
</svg>