<?xml version="1.0" encoding="utf-8"?>
<!-- Generator: Adobe Illustrator 17.1.0, SVG Export Plug-In . SVG Version: 6.00 Build 0)  -->
<!DOCTYPE svg PUBLIC "-//W3C//DTD SVG 1.1//EN" "http://www.w3.org/Graphics/SVG/1.1/DTD/svg11.dtd">
<svg version="1.1" id="Layer_1" xmlns="http://www.w3.org/2000/svg" xmlns:xlink="http://www.w3.org/1999/xlink" x="0px" y="0px"
	 width="56px" height="56px" viewBox="0 0 56 56" enable-background="new 0 0 56 56" xml:space="preserve">
<rect fill="#76C801" width="56" height="56"/>
<path fill="#FFFFFF" d="M45.5,46.9c0,1.1,0.7,1.7,1.7,1.7c1.1,0,1.7-0.7,1.7-1.7c0-1.1-0.7-1.7-1.7-1.7
	C46.1,45.2,45.5,45.9,45.5,46.9 M41.3,43.4l3.9-4.2H42l-3.1,3.5V35h-2.5v13.3h2.5v-4.2l3.1,4.2h3.1L41.3,43.4z M26.3,48.3h2.5v-5.9
	c0.3-0.7,1.1-1.4,1.7-1.4c1.1,0,1.4,0.7,1.4,1.7v5.6h2.5v-5.9c0-2.1-1.1-3.5-3.1-3.5c-1.1,0-2.1,0.3-2.5,1.1v-0.7h-2.5V48.3z
	 M22.1,45.9c-0.3,0.3-1.1,0.7-1.7,0.7s-1.7-0.3-1.7-1.1c0-0.7,0.7-1.1,1.7-1.1c0.7,0,1.4,0.3,1.7,0.7V45.9z M22.1,43.1
	c-0.3-0.3-1.4-0.3-2.1-0.3c-2.1,0-3.5,1.1-3.5,2.8c0,1.7,1.4,3.1,3.5,3.1c1.1,0,1.7-0.3,2.1-0.7v0.3h2.5v-6c0-2.1-1.4-3.5-3.9-3.5
	c-1.1,0-2.5,0.3-3.1,0.7V42c0.7-0.3,1.7-0.7,2.5-0.7c1.4,0,2.1,0.7,2.1,1.4C22.1,42.7,22.1,43.1,22.1,43.1z M9.1,42.3
	c0.3-0.7,1.1-1.1,1.7-1.1c1.4,0,2.1,1.1,2.1,2.5c0,1.4-0.7,2.5-2.1,2.5c-0.7,0-1.4-0.3-1.7-1.1V42.3z M9.1,47.6
	c0.3,0.3,1.4,1.1,2.5,1.1c2.8,0,4.2-2.1,4.2-4.9c0-2.8-1.4-4.9-4.2-4.9c-1.1,0-1.7,0.3-2.5,1.1V35H6.6v13.3h2.5V47.6z"/>
<path fill="#FFFFFF" d="M39.2,21c0-0.7-0.7-1.4-1.4-1.4s-1.4,0.7-1.4,1.4c0,1.1,0.7,1.4,1.4,1.4S39.2,22.1,39.2,21 M38.9,23.8h-2.5
	v9.1h2.5V23.8z M29.7,23.8h-2.1l-1.4,5.9l-1.7-5.9H22l2.8,9.1h2.5l1.4-5.6l1.4,5.6h2.5l2.8-9.1h-2.8l-1.4,5.9L29.7,23.8z M21,21
	c0-0.7-0.7-1.4-1.4-1.4c-0.7,0-1.4,0.3-1.4,1.4s0.7,1.4,1.4,1.4C20.3,22.4,21,22.1,21,21 M21,23.8h-2.5v9.1H21V23.8z M9.5,20.3H6.7
	v12.6h2.5v-5.9l4.9,5.9h3.1l-5.3-6.7l5.3-5.9H14l-4.5,5.3V20.3L9.5,20.3z"/>
</svg>
