<?xml version="1.0" encoding="utf-8"?>
<!-- Generator: Adobe Illustrator 18.0.0, SVG Export Plug-In . SVG Version: 6.00 Build 0)  -->
<!DOCTYPE svg PUBLIC "-//W3C//DTD SVG 1.1//EN" "http://www.w3.org/Graphics/SVG/1.1/DTD/svg11.dtd">
<svg version="1.1" id="Layer_1" xmlns:sketch="http://www.bohemiancoding.com/sketch/ns"
	 xmlns="http://www.w3.org/2000/svg" xmlns:xlink="http://www.w3.org/1999/xlink" x="0px" y="0px" width="26px" height="34px"
	 viewBox="0 0 26 34" enable-background="new 0 0 26 34" xml:space="preserve">
<g>
	<path fill="#CC2828" d="M12.9,8.3c-0.4,0-0.7,0.1-0.9,0.4c-0.3,0.3-0.4,0.6-0.4,0.9c0,0.2,0,0.4,0.1,0.8c0.1,0.2,0.4,1.6,0.7,2.8
		h1.1c0.3-1.2,0.7-2.6,0.7-2.8c0.1-0.3,0.1-0.6,0.1-0.8c0-0.4-0.1-0.7-0.4-0.9C13.6,8.4,13.3,8.3,12.9,8.3z"/>
	<path fill="#CC2828" d="M13,13.9c-0.4,0-0.7,0.1-0.9,0.4c-0.3,0.3-0.4,0.6-0.4,1c0,0.4,0.1,0.7,0.4,0.9c0.3,0.3,0.6,0.4,0.9,0.4
		c0.4,0,0.7-0.1,0.9-0.4c0.3-0.3,0.4-0.6,0.4-0.9c0-0.4-0.1-0.7-0.4-1C13.6,14,13.3,13.9,13,13.9z"/>
	<path fill="#CC2828" d="M13,1C6.4,1,1,6.4,1,13s12,20,12,20s12-13.4,12-20S19.6,1,13,1z M17.9,18H8.1c-1.8,0-2.5-1.3-1.6-2.8
		l4.8-8.4c0.9-1.5,2.3-1.6,3.2,0l4.9,8.4C20.4,16.7,19.6,18,17.9,18z"/>
</g>
</svg>
