<?xml version="1.0" encoding="utf-8"?>
<!-- Generator: Adobe Illustrator 18.0.0, SVG Export Plug-In . SVG Version: 6.00 Build 0)  -->
<!DOCTYPE svg PUBLIC "-//W3C//DTD SVG 1.1//EN" "http://www.w3.org/Graphics/SVG/1.1/DTD/svg11.dtd">
<svg version="1.1" id="Layer_1" xmlns:sketch="http://www.bohemiancoding.com/sketch/ns"
	 xmlns="http://www.w3.org/2000/svg" xmlns:xlink="http://www.w3.org/1999/xlink" x="0px" y="0px" width="26px" height="34px"
	 viewBox="0 0 26 34" enable-background="new 0 0 26 34" xml:space="preserve">
<g>
	<polygon fill="#FFA200" points="11.8,10.8 10.8,14.4 15.2,14.4 14.2,10.8 	"/>
	<path fill="#FFA200" d="M13,1C6.4,1,1,6.4,1,13s12,20,12,20s12-13.4,12-20S19.6,1,13,1z M17.8,18H8.2C7.5,18,7,17.5,7,16.8
		s0.5-1.2,1.2-1.2h1.2l2.2-8.7C11.7,6.4,12.2,6,12.8,6h0.4c0.5,0,1.1,0.4,1.2,0.9l2.2,8.7h1.2c0.7,0,1.2,0.5,1.2,1.2
		S18.5,18,17.8,18z"/>
</g>
</svg>
