<?xml version="1.0" encoding="utf-8"?>
<!-- Generator: Adobe Illustrator 18.0.0, SVG Export Plug-In . SVG Version: 6.00 Build 0)  -->
<!DOCTYPE svg PUBLIC "-//W3C//DTD SVG 1.1//EN" "http://www.w3.org/Graphics/SVG/1.1/DTD/svg11.dtd">
<svg version="1.1" id="Layer_1" xmlns:sketch="http://www.bohemiancoding.com/sketch/ns"
	 xmlns="http://www.w3.org/2000/svg" xmlns:xlink="http://www.w3.org/1999/xlink" x="0px" y="0px" width="26px" height="34px"
	 viewBox="0 0 26 34" enable-background="new 0 0 26 34" xml:space="preserve">
<g>
	<path fill="#327E88" d="M13,10.7c-1.3,0-2.3,1-2.3,2.3s1,2.3,2.3,2.3s2.3-1,2.3-2.3S14.3,10.7,13,10.7z M13,14.2
		c-0.6,0-1.2-0.5-1.2-1.2s0.5-1.2,1.2-1.2s1.2,0.5,1.2,1.2S13.6,14.2,13,14.2z"/>
	<path fill="#327E88" d="M13,0C6.4,0,1,5.4,1,12s12,20,12,20s12-13.4,12-20S19.6,0,13,0z M20,14.9c0,1.3-1,2.3-2.3,2.3H8.3
		c-1.3,0-2.3-1-2.3-2.3v-4.7C6,9,7,7.9,8.3,7.9h1.2l0.8-0.8c0.2-0.2,0.7-0.4,1-0.4h3.5c0.3,0,0.8,0.2,1,0.4l0.8,0.8h1.2
		c1.3,0,2.3,1,2.3,2.3V14.9z"/>
</g>
</svg>
