<?xml version="1.0" encoding="utf-8"?>
<!-- Generator: Adobe Illustrator 18.0.0, SVG Export Plug-In . SVG Version: 6.00 Build 0)  -->
<!DOCTYPE svg PUBLIC "-//W3C//DTD SVG 1.1//EN" "http://www.w3.org/Graphics/SVG/1.1/DTD/svg11.dtd">
<svg version="1.1" id="Layer_1" xmlns:sketch="http://www.bohemiancoding.com/sketch/ns"
	 xmlns="http://www.w3.org/2000/svg" xmlns:xlink="http://www.w3.org/1999/xlink" x="0px" y="0px" width="10px" height="64px"
	 viewBox="30 0 10 64" enable-background="new 30 0 10 64" xml:space="preserve">
<g>
	<path id="path-1_4_" fill="#FFFFFF" d="M40,32c-3.3,0-6-2.7-6-6V4c0-2.2-1.8-4-4-4h10"/>
	<path id="path-1_2_" fill="#FFFFFF" d="M40,64H30c2.2,0,4-1.8,4-4V38c0-3.3,2.7-6,6-6"/>
</g>
<title>Rectangle 16</title>
<desc>Created with Sketch.</desc>
<g id="Page-1" sketch:type="MSPage">
	<g id="Artboard-6" transform="translate(-32.000000, -664.000000)" sketch:type="MSArtboardGroup">
		<g id="Group" transform="translate(0.000000, 128.000000)" sketch:type="MSLayerGroup">
			<g id="Tauhini--_x2B_-Esmonde-Rd.-_x2B_-Rectangle-17" transform="translate(0.000000, 344.000000)">
				<g transform="translate(32.000000, 192.000000)">
					<g id="photo">
						<g id="Rectangle-16" sketch:type="MSShapeGroup">
							<path id="path-1_1_" fill="#FFFFFF" d="M40,32c-3.3,0-6-2.7-6-6V4c0-2.2-1.8-4-4-4h10v64H30c2.2,0,4-1.8,4-4V38
								C34,34.7,36.7,32,40,32"/>
						</g>
					</g>
				</g>
			</g>
		</g>
	</g>
</g>
</svg>
