<?xml version="1.0" encoding="utf-8"?>
<!-- Generator: Adobe Illustrator 16.0.0, SVG Export Plug-In . SVG Version: 6.00 Build 0)  -->
<!DOCTYPE svg PUBLIC "-//W3C//DTD SVG 1.1//EN" "http://www.w3.org/Graphics/SVG/1.1/DTD/svg11.dtd">
<svg version="1.1" id="Layer_1" xmlns="http://www.w3.org/2000/svg" xmlns:xlink="http://www.w3.org/1999/xlink" x="0px" y="0px"
	 width="325.39px" height="34.167px" viewBox="0 0 325.39 34.167" enable-background="new 0 0 325.39 34.167" xml:space="preserve">
<g>
	<path fill="#565555" d="M0,31.093c0,0,40.897-4.618,79.58-4.618c39.512,0,80.651,4.618,80.651,4.618v1.629
		c0,0-41.413-4.377-80.645-4.377C40.897,28.345,0,32.722,0,32.722V31.093L0,31.093z M15.727,23.561h-3.523L6.013,11.042
		C4.815,8.614,3.584,5.945,3.139,4.578L2.934,4.611c0.171,2.019,0.24,4.378,0.273,6.567l0.137,12.382H2.051
		c-1.493,0-2.025-1.443-2.025-3.071V-0.006h3.831l6.567,12.998c0.992,1.95,2.155,4.994,2.326,5.644l0.205-0.068
		c-0.068-0.685-0.342-4.413-0.342-7.012L12.545-0.006h3.181V23.561L15.727,23.561z M74.357,21.104l-0.82,2.737H59.478v-2.532
		l9.509-15.022c0.513-0.889,1.197-1.812,1.676-2.428c-0.684,0.068-1.539,0.103-2.702,0.103h-8.072l0.787-2.737H74.22v2.634
		l-9.406,15.022c-0.513,0.89-1.061,1.573-1.471,2.258c0.718-0.035,1.505-0.035,2.36-0.035H74.357L74.357,21.104z M182.514,21.742
		c-1.916,1.197-4.482,1.881-6.979,1.881c-3.146,0-5.645-1.06-7.457-3.181c-1.881-2.189-2.736-4.96-2.736-8.825
		c0-3.273,1.369-7.019,4.07-9.242c1.711-1.402,3.592-2.018,5.918-2.018c2.566,0,4.822,0.752,6.67,2.36l-1.574,2.052
		c-1.744-1.266-3.215-1.779-5.027-1.779c-2.258,0-3.932,0.943-5.062,3.01c-0.822,1.505-1.299,2.983-1.299,5.788
		c0,3.25,0.58,5.678,1.676,7.115c1.025,1.334,3.043,2.121,5.062,2.121c1.334,0,2.531-0.343,3.488-0.89v-6.704h-4.344l-0.549-2.703
		h8.143V21.742L182.514,21.742z M199.66,14.867c0,5.438-2.906,8.894-7.457,8.894c-4.582,0-7.421-3.489-7.421-9.065
		c0-5.541,2.84-9.03,7.353-9.03C197.197,5.666,199.66,9.702,199.66,14.867L199.66,14.867z M196.136,15.003
		c0-5.302-1.539-6.909-4.002-6.909c-2.736,0-3.863,1.95-3.863,6.259c0,5.233,1.334,6.978,4.001,6.978
		C194.666,21.331,196.136,19.485,196.136,15.003L196.136,15.003z M215.395,6.145l-6.26,17.273h-2.941l-6.121-17.205L203.32,5.7
		l3.387,10.365c0.375,1.163,0.752,2.531,1.025,3.694c0.273-1.026,0.615-2.36,1.096-3.763l3.25-9.852H215.395L215.395,6.145z
		 M229.717,15.38h-10.434v0.411c0,1.471,0.207,2.599,0.719,3.42c0.891,1.368,2.291,2.019,3.934,2.019
		c1.607,0,2.977-0.548,4.207-1.643l1.197,1.882c-1.676,1.471-3.693,2.188-5.918,2.188c-4.754,0-7.66-3.454-7.66-9.064
		c0-2.976,0.58-4.892,2.051-6.636c1.369-1.607,3.045-2.36,5.166-2.36c1.916,0,3.455,0.615,4.652,1.847
		c1.504,1.54,2.051,3.455,2.086,7.389V15.38L229.717,15.38z M226.434,13.054c0-1.642-0.377-3.01-1.061-3.865
		c-0.549-0.684-1.369-1.197-2.463-1.197c-2.395,0-3.592,1.95-3.592,5.062H226.434L226.434,13.054z M241.148,5.769l-1.094,3.146
		c-0.309-0.103-0.547-0.171-0.891-0.171c-1.914,0-3.557,1.607-3.557,3.489v11.048h-3.146V10.694c0-2.087-0.238-3.216-0.65-4.276
		l3.045-0.787c0.309,0.65,0.582,1.779,0.582,2.634v0.308c1.367-1.984,2.838-2.976,4.65-2.976
		C240.498,5.598,240.875,5.666,241.148,5.769L241.148,5.769z M256.17,23.281h-3.111V11.72c0-1.539-0.139-2.086-0.549-2.634
		c-0.342-0.444-0.957-0.684-1.744-0.684c-1.232,0-3.078,0.958-4.242,2.189v12.69h-3.111V10.523c0-2.052-0.172-2.839-0.65-4.07
		l2.977-0.821c0.41,0.821,0.58,1.574,0.58,2.634c0.992-0.821,1.506-1.266,2.225-1.676c0.99-0.582,2.119-0.855,3.182-0.855
		c1.812,0,3.42,0.958,4.035,2.429c0.273,0.616,0.41,1.368,0.41,2.155V23.281L256.17,23.281z M280.797,23.281h-3.113V11.002
		c0-1.95-0.615-2.634-2.053-2.634c-1.572,0-2.701,1.026-4.002,2.327v12.587h-3.078V11.07c0-1.915-0.547-2.634-2.121-2.634
		c-1.162,0-2.463,0.582-3.934,1.984v12.861h-3.111V10.694c0-2.429-0.137-3.079-0.617-4.276l2.941-0.719
		c0.344,0.582,0.582,1.437,0.582,2.395c1.471-1.539,3.217-2.429,4.824-2.429s3.215,0.855,4.07,2.702
		c1.709-1.812,3.488-2.702,5.232-2.702c2.668,0,4.379,1.676,4.379,4.824V23.281L280.797,23.281z M297.178,15.38h-10.432v0.411
		c0,1.471,0.205,2.599,0.719,3.42c0.889,1.368,2.291,2.019,3.932,2.019c1.607,0,2.977-0.548,4.209-1.643l1.197,1.882
		c-1.678,1.471-3.695,2.188-5.918,2.188c-4.754,0-7.662-3.454-7.662-9.064c0-2.976,0.582-4.892,2.053-6.636
		c1.367-1.607,3.043-2.36,5.164-2.36c1.916,0,3.455,0.615,4.652,1.847c1.506,1.54,2.053,3.455,2.086,7.389V15.38L297.178,15.38z
		 M293.895,13.054c0-1.642-0.377-3.01-1.061-3.865c-0.547-0.684-1.369-1.197-2.463-1.197c-2.395,0-3.592,1.95-3.592,5.062H293.895
		L293.895,13.054z M312.682,23.281h-3.113V11.72c0-1.539-0.137-2.086-0.547-2.634c-0.342-0.444-0.959-0.684-1.744-0.684
		c-1.232,0-3.08,0.958-4.242,2.189v12.69h-3.113V10.523c0-2.052-0.17-2.839-0.65-4.07l2.977-0.821
		c0.41,0.821,0.582,1.574,0.582,2.634c0.992-0.821,1.506-1.266,2.223-1.676c0.992-0.582,2.121-0.855,3.182-0.855
		c1.812,0,3.42,0.958,4.037,2.429c0.273,0.616,0.41,1.368,0.41,2.155V23.281L312.682,23.281z M324.268,6.145l-0.854,2.223h-3.387
		v10.331c0,2.12,0.514,2.771,2.223,2.771c0.582,0,1.061-0.103,1.607-0.343l0.377,1.916c-0.957,0.479-1.984,0.719-3.113,0.719
		s-2.359-0.343-2.906-0.855c-0.719-0.649-1.266-0.992-1.266-3.489V8.368h-2.053V6.145h2.053c0-1.333,0.033-3.078,0.205-4.378
		l3.25-0.752c-0.139,1.231-0.309,3.386-0.309,5.13H324.268L324.268,6.145z M32.074,15.375H21.589v0.413
		c0,1.479,0.207,2.612,0.722,3.438c0.894,1.375,2.303,2.028,3.953,2.028c1.615,0,2.99-0.551,4.228-1.65l1.204,1.891
		c-1.685,1.479-3.712,2.2-5.947,2.2c-4.778,0-7.7-3.472-7.7-9.109c0-2.991,0.584-4.916,2.062-6.668
		c1.375-1.616,3.06-2.372,5.19-2.372c1.925,0,3.472,0.619,4.675,1.856c1.513,1.547,2.062,3.472,2.097,7.425V15.375L32.074,15.375z
		 M28.773,13.039c0-1.65-0.378-3.025-1.065-3.885c-0.55-0.688-1.375-1.203-2.475-1.203c-2.406,0-3.609,1.959-3.609,5.088H28.773
		L28.773,13.039z M55.834,6.095l-4.812,17.358h-3.059l-2.509-9.384c-0.31-1.203-1.066-4.056-1.066-4.056h-0.104
		c0,0-0.687,2.921-0.928,3.85l-2.578,9.59h-3.025L33.044,6.232l3.197-0.516l2.2,9.659c0.378,1.719,0.894,4.228,0.894,4.228h0.104
		c0,0,0.378-2.44,0.791-3.918l2.612-9.59h3.266l2.406,9.315c0.482,1.856,0.962,4.021,0.962,4.193h0.138
		c0-0.172,0.55-2.956,0.791-4.09l2.131-9.418H55.834L55.834,6.095z M87.905,15.375H77.421v0.413c0,1.479,0.207,2.612,0.722,3.438
		c0.894,1.375,2.302,2.028,3.953,2.028c1.615,0,2.991-0.551,4.228-1.65l1.203,1.891c-1.684,1.479-3.712,2.2-5.947,2.2
		c-4.778,0-7.7-3.472-7.7-9.109c0-2.991,0.584-4.916,2.062-6.668c1.375-1.616,3.06-2.372,5.191-2.372
		c1.925,0,3.472,0.619,4.675,1.856c1.513,1.547,2.062,3.472,2.097,7.425V15.375L87.905,15.375z M84.605,13.039
		c0-1.65-0.378-3.025-1.065-3.885c-0.55-0.688-1.375-1.203-2.475-1.203c-2.406,0-3.609,1.959-3.609,5.088H84.605L84.605,13.039z
		 M104.137,21.906l-1.615,2.132c-1.066-0.413-1.891-1.272-2.303-2.475c-0.447,0.549-1.89,2.269-4.881,2.269
		c-3.438,0-5.569-1.753-5.569-5.054c0-3.987,3.197-6.118,8.766-6.118c0.412,0,0.756,0,1.203,0.034V11.56
		c0-2.028-0.275-3.403-2.681-3.403c-1.822,0-3.884,0.894-5.294,1.959l-1.443-2.269c1.684-0.962,3.884-2.269,7.218-2.269
		c2.509,0,4.332,0.928,4.984,2.75c0.275,0.756,0.343,1.34,0.343,3.024c0,1.238-0.137,3.885-0.137,6.394
		C102.728,20.119,102.796,21.082,104.137,21.906L104.137,21.906z M99.668,14.86c-0.481-0.034-0.756-0.069-1.031-0.069
		c-2.372,0-3.815,0.447-4.503,1.237c-0.653,0.757-0.894,1.375-0.894,2.51c0,1.891,0.963,2.99,2.716,2.99
		c1.443,0,2.818-0.894,3.609-2.269L99.668,14.86L99.668,14.86z M111.699,23.281c-0.653,0.275-1.203,0.378-1.959,0.378
		c-1.237,0-2.028-0.378-2.681-1.306c-0.516-0.722-0.654-1.306-0.654-2.991V5.325c0-2.44-0.103-3.609-0.378-4.949l3.3-0.688
		c0.31,1.135,0.31,2.785,0.31,4.916v13.935c0,1.821,0.103,2.234,0.447,2.544c0.206,0.24,0.687,0.344,1.065,0.24L111.699,23.281
		L111.699,23.281z M127.387,21.906l-1.615,2.132c-1.066-0.413-1.891-1.272-2.303-2.475c-0.447,0.549-1.89,2.269-4.881,2.269
		c-3.438,0-5.569-1.753-5.569-5.054c0-3.987,3.197-6.118,8.766-6.118c0.412,0,0.756,0,1.203,0.034V11.56
		c0-2.028-0.275-3.403-2.681-3.403c-1.822,0-3.885,0.894-5.294,1.959l-1.443-2.269c1.684-0.962,3.884-2.269,7.218-2.269
		c2.509,0,4.332,0.928,4.984,2.75c0.275,0.756,0.343,1.34,0.343,3.024c0,1.238-0.137,3.885-0.137,6.394
		C125.978,20.119,126.046,21.082,127.387,21.906L127.387,21.906z M122.918,14.86c-0.481-0.034-0.756-0.069-1.031-0.069
		c-2.372,0-3.815,0.447-4.502,1.237c-0.653,0.757-0.894,1.375-0.894,2.51c0,1.891,0.962,2.99,2.716,2.99
		c1.443,0,2.819-0.894,3.609-2.269L122.918,14.86L122.918,14.86z M159.667,23.316h-3.025c-0.172-0.516-0.207-0.757-0.31-1.616
		c-1.203,1.272-2.612,1.891-4.434,1.891c-4.4,0-6.978-3.3-6.978-8.731c0-3.712,1.272-6.565,3.609-8.078
		c1.065-0.688,2.131-0.997,3.369-0.997c1.65,0,3.024,0.585,4.193,1.994c0-0.481-0.069-3.111-0.069-4.279v-3.567l3.163,0.516v17.093
		C159.186,20.325,159.288,22.25,159.667,23.316L159.667,23.316z M155.989,18.95V9.944c-0.894-1.065-2.028-1.615-3.644-1.615
		c-1.306,0-2.338,0.653-2.991,1.753c-0.653,1.134-0.894,2.509-0.894,4.744c0,3.334,0.413,4.262,1.341,5.225
		c0.584,0.618,1.375,0.894,2.543,0.894C154.167,20.944,155.404,19.981,155.989,18.95L155.989,18.95z M142.211,23.316h-3.127V11.698
		c0-1.547-0.138-2.097-0.55-2.646c-0.344-0.447-0.962-0.688-1.753-0.688c-1.238,0-3.094,0.962-4.263,2.2v12.753h-1.59
		c-1.003,0-1.538-0.753-1.538-1.929V10.495c0-2.062-0.171-2.853-0.653-4.091l2.991-0.825c0.413,0.825,0.584,1.581,0.584,2.647
		c0.997-0.825,1.513-1.272,2.234-1.685c0.997-0.584,2.131-0.859,3.197-0.859c1.822,0,3.437,0.962,4.056,2.44
		c0.274,0.619,0.412,1.375,0.412,2.166V23.316L142.211,23.316z"/>
</g>
</svg>
