<?xml version="1.0" encoding="UTF-8" standalone="no"?>
<svg width="121px" height="16px" viewBox="0 0 121 16" version="1.1" xmlns="http://www.w3.org/2000/svg" xmlns:xlink="http://www.w3.org/1999/xlink" xmlns:sketch="http://www.bohemiancoding.com/sketch/ns">
    <!-- Generator: Sketch 3.0.3 (7891) - http://www.bohemiancoding.com/sketch -->
    <title>newzealand.govt.nz</title>
    <desc>Created with Sketch.</desc>
    <defs></defs>
    <g id="Page-1" stroke="none" stroke-width="1" fill="none" fill-rule="evenodd" sketch:type="MSPage">
        <g id="L-•-HOMEPAGE" sketch:type="MSArtboardGroup" transform="translate(-933.000000, -901.000000)" fill="#959FA6">
            <g id="Group" sketch:type="MSLayerGroup" transform="translate(128.000000, 848.000000)">
                <g id="newzealand.govt.nz" sketch:type="MSShapeGroup">
                    <path d="M918.643628,63.9802667 L917.185204,63.9802667 L917.185204,58.5818667 C917.185204,57.8618667 917.119885,57.6069333 916.929283,57.352 C916.768664,57.1450667 916.480619,57.032 916.110124,57.032 C915.532965,57.032 914.66669,57.48 914.122726,58.0549333 L914.122726,63.9802667 L913.380664,63.9802667 C912.913796,63.9802667 912.66323,63.6304 912.66323,63.0842667 L912.66323,58.0218667 C912.66323,57.0629333 912.583991,56.696 912.359124,56.1210667 L913.754372,55.7381333 C913.947115,56.1210667 914.027425,56.472 914.027425,56.968 C914.493221,56.5850667 914.732009,56.376 915.070381,56.1850667 C915.535106,55.9141333 916.06408,55.7861333 916.562,55.7861333 C917.411142,55.7861333 918.164982,56.2330667 918.455168,56.92 C918.582593,57.208 918.646841,57.5589333 918.646841,57.9258667 L918.646841,63.9802667 L918.643628,63.9802667 Z M925.933611,62.9253333 L925.420699,63.9792 L919.93608,63.9792 L919.93608,62.9253333 L924.153947,57.0469333 L920.255177,57.0469333 L920.255177,55.9770667 L925.755858,55.9770667 L925.755858,57.0789333 L921.730735,62.9253333 L925.933611,62.9253333 L925.933611,62.9253333 Z M908.430372,55.9770667 L908.029894,57.0149333 L906.444044,57.0149333 L906.444044,61.8405333 C906.444044,62.8304 906.683903,63.1344 907.485929,63.1344 C907.758982,63.1344 907.982779,63.0864 908.23977,62.9744 L908.416451,63.8704 C907.966717,64.0933333 907.485929,64.2053333 906.956956,64.2053333 C906.426912,64.2053333 905.849752,64.0453333 905.594903,63.8053333 C905.257602,63.5013333 904.99954,63.3424 904.99954,62.1744 L904.99954,57.016 L904.039035,57.016 L904.375265,55.9781333 L904.99954,55.9781333 C904.99954,55.3552 905.017743,54.5402667 905.095912,53.9333333 L906.620726,53.5824 C906.555407,54.1573333 906.475097,55.1632 906.475097,55.9781333 L908.430372,55.9781333 L908.430372,55.9770667 Z M903.417973,55.9770667 L900.48292,64.0442667 L899.103735,64.0442667 L896.234,56.0090667 L897.756673,55.7690667 L899.343593,60.6085333 C899.521345,61.1514667 899.695885,61.7914667 899.824381,62.3333333 C899.952876,61.8544 900.114566,61.2314667 900.338363,60.5776 L901.861035,55.9770667 L903.417973,55.9770667 L903.417973,55.9770667 Z M894.382593,60.1146667 C894.382593,57.6378667 893.660876,56.8869333 892.506558,56.8869333 C891.223743,56.8869333 890.69477,57.7978667 890.69477,59.8117333 C890.69477,62.2554667 891.320115,63.0693333 892.571876,63.0693333 C893.693,63.0693333 894.382593,62.2064 894.382593,60.1146667 L894.382593,60.1146667 Z M896.033761,60.0496 C896.033761,62.5893333 894.671708,64.2042667 892.538681,64.2042667 C890.389593,64.2042667 889.058593,62.5733333 889.058593,59.9706667 C889.058593,57.3829333 890.389593,55.7530667 892.506558,55.7530667 C894.879442,55.7530667 896.033761,57.6378667 896.033761,60.0496 L896.033761,60.0496 Z M886.076425,58.4048 C886.076425,57.3829333 885.611699,56.904 884.600867,56.904 C883.655354,56.904 883.141372,57.4149333 883.141372,58.4378667 C883.141372,59.4277333 883.671416,59.9237333 884.616929,59.9237333 C885.579575,59.9226667 886.076425,59.3957333 886.076425,58.4048 L886.076425,58.4048 Z M889.154965,56.632 C888.706301,56.9829333 888.321885,57.1109333 887.825035,57.1109333 C887.584106,57.1109333 887.519858,57.0938667 887.135442,56.9829333 C887.551982,57.5098667 887.712602,57.9408 887.712602,58.4528 C887.712602,59.6026667 886.926637,60.9274667 884.825735,60.9274667 C884.328885,61.0874667 883.558982,61.4565333 883.558982,61.8064 C883.558982,62.0464 883.751726,62.2064 884.136142,62.2064 L885.369699,62.2064 C887.422416,62.2064 888.272628,63.1642667 888.272628,64.4101333 C888.272628,66.1349333 886.845257,66.9978667 884.889982,66.9978667 C882.643451,66.9978667 881.360637,66.2149333 881.360637,64.8890667 C881.360637,64.5541333 881.425956,64.3141333 881.506265,64.0741333 L882.949699,63.9930667 C882.885451,64.1221333 882.805142,64.3781333 882.805142,64.6010667 C882.805142,65.432 883.494735,65.88 884.745425,65.88 C886.061434,65.88 886.718903,65.3530667 886.718903,64.5050667 C886.718903,63.7381333 886.093558,63.2922667 884.505566,63.2922667 C883.944469,63.2922667 883.303062,63.2421333 882.998956,63.2112 C882.293301,63.1322667 881.87569,62.7322667 881.87569,62.1402667 C881.87569,61.3904 882.533159,61.0714667 883.447619,60.7354667 C882.212991,60.3674667 881.555522,59.5376 881.555522,58.4357333 C881.555522,56.8218667 882.78908,55.7509333 884.634062,55.7509333 C885.066664,55.7509333 885.403965,55.7829333 885.884752,55.9269333 C886.302363,56.0549333 886.734965,56.1818667 887.087257,56.1818667 C887.569115,56.1818667 887.969593,56.0229333 888.402195,55.7189333 L889.154965,56.632 L889.154965,56.632 Z M875.833186,61.9504 L875.833186,57.7658667 C875.415575,57.2709333 874.885531,57.0149333 874.13169,57.0149333 C873.524549,57.0149333 873.041619,57.3189333 872.736442,57.8309333 C872.432336,58.3578667 872.319903,58.9968 872.319903,60.0346667 C872.319903,61.5845333 872.512646,62.0154667 872.945248,62.4634667 C873.218301,62.7493333 873.586655,62.8784 874.130619,62.8784 C874.984044,62.8773333 875.560133,62.4293333 875.833186,61.9504 L875.833186,61.9504 Z M877.548602,63.9802667 L876.138363,63.9802667 C876.059124,63.7402667 876.041991,63.6282667 875.992735,63.2304 C875.432708,63.8202667 874.774168,64.1093333 873.925027,64.1093333 C871.87231,64.1093333 870.669805,62.5744 870.669805,60.0506667 C870.669805,58.3258667 871.263027,57.0010667 872.353097,56.2970667 C872.849947,55.9770667 873.347867,55.8330667 873.925027,55.8330667 C874.694929,55.8330667 875.334195,56.1050667 875.881372,56.76 C875.881372,56.536 875.849248,55.3146667 875.849248,54.7706667 L875.849248,53.1130667 L877.324805,53.3530667 L877.324805,61.2965333 C877.324805,62.5904 877.372991,63.4842667 877.548602,63.9802667 L877.548602,63.9802667 Z M860.40515,60.0496 C860.180283,60.0336 860.052858,60.0186667 859.924363,60.0186667 C858.817159,60.0186667 858.144699,60.2256 857.82346,60.5936 C857.519354,60.9445333 857.40692,61.2314667 857.40692,61.7584 C857.40692,62.6373333 857.855584,63.1482667 858.673673,63.1482667 C859.347204,63.1482667 859.988611,62.7333333 860.356965,62.0944 L860.40515,60.0496 L860.40515,60.0496 Z M862.489991,63.3253333 L861.737221,64.3152 C861.239301,64.1232 860.854885,63.7232 860.662142,63.1653333 C860.454407,63.4192 859.780876,64.2192 858.384558,64.2192 C856.782646,64.2192 855.786805,63.4042667 855.786805,61.8714667 C855.786805,60.0186667 857.279496,59.0277333 859.876177,59.0277333 C860.06892,59.0277333 860.22954,59.0277333 860.436204,59.0437333 L860.436204,58.5168 C860.436204,57.5749333 860.308779,56.936 859.185513,56.936 C858.335301,56.936 857.374796,57.352 856.716257,57.8469333 L856.042726,56.7930667 C856.827619,56.3461333 857.854513,55.7392 859.410381,55.7392 C860.581832,55.7392 861.432044,56.1701333 861.73615,57.016 C861.863575,57.368 861.895699,57.6389333 861.895699,58.4218667 C861.895699,58.9968 861.831451,60.2266667 861.831451,61.3936 C861.832522,62.4944 861.864646,62.9424 862.489991,63.3253333 L862.489991,63.3253333 Z M855.171097,63.9653333 C854.866991,64.0922667 854.611071,64.1402667 854.256637,64.1402667 C853.679478,64.1402667 853.311124,63.9653333 853.005947,63.5344 C852.766088,63.1973333 852.701841,62.9264 852.701841,62.1424 L852.701841,55.6197333 C852.701841,54.4848 852.653655,53.9418667 852.525159,53.3189333 L854.064965,53 C854.208451,53.5269333 854.208451,54.2938667 854.208451,55.2837333 L854.208451,61.7594667 C854.208451,62.6074667 854.256637,62.7973333 854.417257,62.9424 C854.513628,63.0544 854.738496,63.1024 854.914106,63.0544 L855.171097,63.9653333 L855.171097,63.9653333 Z M849.559053,60.0496 C849.334186,60.0336 849.20569,60.0186667 849.077195,60.0186667 C847.971062,60.0186667 847.297531,60.2256 846.977363,60.5936 C846.672186,60.9445333 846.558681,61.2314667 846.558681,61.7584 C846.558681,62.6373333 847.008416,63.1482667 847.827575,63.1482667 C848.500035,63.1482667 849.142513,62.7333333 849.510867,62.0944 L849.559053,60.0496 L849.559053,60.0496 Z M851.642823,63.3253333 L850.891124,64.3152 C850.393204,64.1232 850.008788,63.7232 849.814973,63.1653333 C849.60831,63.4192 848.934779,64.2192 847.53846,64.2192 C845.934407,64.2192 844.940708,63.4042667 844.940708,61.8714667 C844.940708,60.0186667 846.433398,59.0277333 849.03008,59.0277333 C849.221752,59.0277333 849.382372,59.0277333 849.590106,59.0437333 L849.590106,58.5168 C849.590106,57.5749333 849.461611,56.936 848.339416,56.936 C847.489204,56.936 846.527628,57.352 845.869088,57.8469333 L845.195558,56.7930667 C845.980451,56.3461333 847.007345,55.7392 848.563212,55.7392 C849.734664,55.7392 850.584876,56.1701333 850.890053,57.016 C851.016407,57.368 851.049602,57.6389333 851.049602,58.4218667 C851.049602,58.9968 850.984283,60.2266667 850.984283,61.3936 C850.985354,62.4944 851.017478,62.9424 851.642823,63.3253333 L851.642823,63.3253333 Z M842.531416,59.2048 C842.531416,58.4378667 842.354735,57.7989333 842.034566,57.4 C841.777575,57.08 841.393159,56.84 840.879177,56.84 C839.756982,56.84 839.195885,57.7509333 839.195885,59.2058667 L842.531416,59.2058667 L842.531416,59.2048 Z M844.071221,60.2896 L839.179823,60.2896 L839.179823,60.4816 C839.179823,61.1696 839.276195,61.6965333 839.517124,62.0805333 C839.933664,62.7205333 840.591133,63.0224 841.361035,63.0224 C842.114876,63.0224 842.756283,62.7664 843.333442,62.2554667 L843.89454,63.1344 C843.108575,63.8202667 842.161991,64.1573333 841.119035,64.1573333 C838.891779,64.1573333 837.527584,62.5424 837.527584,59.9237333 C837.527584,58.5338667 837.799566,57.6378667 838.489159,56.8250667 C839.130566,56.0741333 839.916531,55.7232 840.91023,55.7232 C841.808628,55.7232 842.530345,56.0112 843.091442,56.5861333 C843.797097,57.3050667 844.053018,58.2 844.07015,60.0357333 L844.07015,60.2896 L844.071221,60.2896 Z M837.258814,62.9253333 L836.744832,63.9792 L831.262354,63.9792 L831.262354,62.9253333 L835.47915,57.0469333 L831.581451,57.0469333 L831.581451,55.9770667 L837.082133,55.9770667 L837.082133,57.0789333 L833.057009,62.9253333 L837.258814,62.9253333 L837.258814,62.9253333 Z M830.11446,55.9770667 L827.870071,64.0442667 L826.442699,64.0442667 L825.271248,59.6826667 C825.12669,59.1248 824.773327,57.7978667 824.773327,57.7978667 L824.725142,57.7978667 C824.725142,57.7978667 824.404973,59.1557333 824.29254,59.5877333 L823.090035,64.0442667 L821.679796,64.0442667 L819.482522,56.04 L820.974142,55.8010667 L821.999965,60.2896 C822.176646,61.0885333 822.417575,62.2544 822.417575,62.2544 L822.465761,62.2544 C822.465761,62.2544 822.641372,61.1205333 822.835186,60.4336 L824.053752,55.976 L825.577496,55.976 L826.69969,60.3045333 C826.924558,61.1685333 827.148354,62.1722667 827.148354,62.2544 L827.214743,62.2544 C827.214743,62.1733333 827.470664,60.8805333 827.583097,60.3525333 L828.576796,55.976 L830.11446,55.976 L830.11446,55.9770667 Z M817.490841,59.2048 C817.490841,58.4378667 817.314159,57.7989333 816.993991,57.4 C816.737,57.08 816.350442,56.84 815.838602,56.84 C814.716407,56.84 814.15531,57.7509333 814.15531,59.2058667 L817.490841,59.2058667 L817.490841,59.2048 Z M819.029575,60.2896 L814.140319,60.2896 L814.140319,60.4816 C814.140319,61.1696 814.23669,61.6965333 814.476549,62.0805333 C814.894159,62.7205333 815.550558,63.0224 816.32046,63.0224 C817.074301,63.0224 817.715708,62.7664 818.292867,62.2554667 L818.853965,63.1344 C818.069071,63.8202667 817.122487,64.1573333 816.079531,64.1573333 C813.850133,64.1573333 812.48808,62.5424 812.48808,59.9237333 C812.48808,58.5338667 812.761133,57.6378667 813.449655,56.8250667 C814.092133,56.0741333 814.877027,55.7232 815.871796,55.7232 C816.770195,55.7232 817.491912,56.0112 818.051938,56.5861333 C818.757593,57.3050667 819.014584,58.2 819.029575,60.0357333 L819.029575,60.2896 L819.029575,60.2896 Z M909.845965,62.7258667 C909.845965,62.6384 909.917708,62.5658667 910.007655,62.5658667 L911.10308,62.5658667 C911.193027,62.5658667 911.26477,62.6384 911.26477,62.7258667 L911.26477,63.9802667 L910.006584,63.9802667 C909.916637,63.9802667 909.844894,63.9077333 909.844894,63.8181333 L909.844894,62.7258667 L909.845965,62.7258667 Z M878.921363,62.7258667 C878.921363,62.6384 878.992035,62.5658667 879.081982,62.5658667 L880.178478,62.5658667 C880.267354,62.5658667 880.339097,62.6384 880.339097,62.7258667 L880.339097,63.9802667 L879.080912,63.9802667 C878.990965,63.9802667 878.920292,63.9077333 878.920292,63.8181333 L878.920292,62.7258667 L878.921363,62.7258667 Z M869.405195,63.9802667 L867.947841,63.9802667 L867.947841,58.5818667 C867.947841,57.8618667 867.882522,57.6069333 867.69085,57.352 C867.53023,57.1450667 867.242186,57.032 866.872761,57.032 C866.295602,57.032 865.428257,57.48 864.884292,58.0549333 L864.884292,63.9802667 L864.143301,63.9802667 C863.675363,63.9802667 863.424796,63.6304 863.424796,63.0842667 L863.424796,58.0218667 C863.424796,57.0629333 863.346628,56.696 863.121761,56.1210667 L864.517009,55.7381333 C864.708681,56.1210667 864.788991,56.472 864.788991,56.968 C865.254788,56.5850667 865.495717,56.376 865.831947,56.1850667 C866.297743,55.9141333 866.826717,55.7861333 867.324637,55.7861333 C868.173779,55.7861333 868.927619,56.2330667 869.216735,56.92 C869.34523,57.208 869.408407,57.5589333 869.408407,57.9258667 L869.408407,63.9802667 L869.405195,63.9802667 Z M811.284504,63.9802667 L809.825009,63.9802667 L809.825009,58.5818667 C809.825009,57.8618667 809.760761,57.6069333 809.569088,57.352 C809.40954,57.1450667 809.120425,57.032 808.751,57.032 C808.173841,57.032 807.307566,57.48 806.762531,58.0549333 L806.762531,63.9802667 L806.02154,63.9802667 C805.552531,63.9802667 805.304106,63.6304 805.304106,63.0842667 L805.304106,58.0218667 C805.304106,57.0629333 805.223796,56.696 805,56.1210667 L806.395248,55.7381333 C806.587991,56.1210667 806.66723,56.472 806.66723,56.968 C807.134097,56.5850667 807.372885,56.376 807.711257,56.1850667 C808.175982,55.9141333 808.704956,55.7861333 809.201805,55.7861333 C810.052018,55.7861333 810.805858,56.2330667 811.093903,56.92 C811.222398,57.208 811.287717,57.5589333 811.287717,57.9258667 L811.287717,63.9802667 L811.284504,63.9802667 Z M805.300894,68.0176 C805.300894,68.0176 823.086823,65.8714667 841.134027,65.8714667 C859.566717,65.8714667 877.46615,68.0176 877.46615,68.0176 L877.46615,68.776 C877.46615,68.776 859.439292,66.7408 841.136168,66.7408 C823.087894,66.7408 805.300894,68.776 805.300894,68.776 L805.300894,68.0176 L805.300894,68.0176 Z"></path>
                </g>
            </g>
        </g>
    </g>
</svg>