<?xml version="1.0" encoding="UTF-8" standalone="no"?>
<svg width="22px" height="24px" viewBox="0 0 22 24" version="1.1" xmlns="http://www.w3.org/2000/svg" xmlns:xlink="http://www.w3.org/1999/xlink" xmlns:sketch="http://www.bohemiancoding.com/sketch/ns">
    <!-- Generator: Sketch 3.0.3 (7891) - http://www.bohemiancoding.com/sketch -->
    <title>Fill 1</title>
    <desc>Created with Sketch.</desc>
    <defs></defs>
    <g id="Page-1" stroke="none" stroke-width="1" fill="none" fill-rule="evenodd" sketch:type="MSPage">
        <g id="L-•-HOMEPAGE" sketch:type="MSArtboardGroup" transform="translate(-937.000000, -852.000000)" fill="#959FA6">
            <g id="Group" sketch:type="MSLayerGroup" transform="translate(128.000000, 848.000000)">
                <g id="Fill-1" sketch:type="MSShapeGroup">
                    <g transform="translate(713.000000, 5.000000)">
                        <path d="M106.9756,-0.03104 C100.91432,-0.03104 96,4.8828 96,10.9444 C96,15.43856 98.70248,19.29936 102.5696,20.99688 C102.53872,20.23048 102.56408,19.31048 102.76064,18.47664 C102.9716,17.5856 104.17288,12.49616 104.17288,12.49616 C104.17288,12.49616 103.82216,11.79544 103.82216,10.7596 C103.82216,9.1332 104.76488,7.91848 105.93888,7.91848 C106.9372,7.91848 107.41952,8.66832 107.41952,9.56616 C107.41952,10.56976 106.77944,12.07088 106.45024,13.4612 C106.17528,14.62544 107.034,15.57504 108.18256,15.57504 C110.262,15.57504 111.66256,12.90424 111.66256,9.73976 C111.66256,7.33432 110.0424,5.53384 107.09568,5.53384 C103.7664,5.53384 101.69232,8.01664 101.69232,10.78992 C101.69232,11.74608 101.97424,12.42048 102.41584,12.94256 C102.61888,13.18248 102.64712,13.27888 102.5736,13.55432 C102.52096,13.75624 102.40008,14.24248 102.35,14.43512 C102.27688,14.71304 102.05168,14.81248 101.80048,14.70976 C100.26704,14.08376 99.5528,12.40448 99.5528,10.51672 C99.5528,7.39904 102.18224,3.66056 107.39688,3.66056 C111.5872,3.66056 114.34512,6.6928 114.34512,9.94776 C114.34512,14.2532 111.95152,17.46976 108.42312,17.46976 C107.23824,17.46976 106.1236,16.8292 105.74184,16.10176 C105.74184,16.10176 105.10464,18.63048 104.96968,19.1188 C104.73704,19.96504 104.28152,20.81072 103.86504,21.46992 C104.85216,21.76136 105.89488,21.92 106.9756,21.92 C113.0364,21.92 117.95048,17.00608 117.95048,10.9444 C117.95048,4.8828 113.0364,-0.03104 106.9756,-0.03104"></path>
                    </g>
                </g>
            </g>
        </g>
    </g>
</svg>