<?xml version="1.0" encoding="UTF-8" standalone="no"?>
<svg width="14px" height="14px" viewBox="0 0 14 14" version="1.1" xmlns="http://www.w3.org/2000/svg" xmlns:xlink="http://www.w3.org/1999/xlink" xmlns:sketch="http://www.bohemiancoding.com/sketch/ns">
    <!-- Generator: Sketch 3.0.3 (7891) - http://www.bohemiancoding.com/sketch -->
    <title>Shape 6</title>
    <desc>Created with Sketch.</desc>
    <defs></defs>
    <g id="Page-1" stroke="none" stroke-width="1" fill="none" fill-rule="evenodd" sketch:type="MSPage">
        <g id="L-•-HOMEPAGE" sketch:type="MSArtboardGroup" transform="translate(-472.000000, -857.000000)" fill="#9AA4AA">
            <g id="Group" sketch:type="MSLayerGroup" transform="translate(128.000000, 848.000000)">
                <g id="Rectangle-78-+-Shape-6-+-Search-2" sketch:type="MSShapeGroup">
                    <g transform="translate(344.000000, 0.000000)">
                        <path d="M14,21.25 L10.731,17.981 C11.3178333,17.0721667 11.6666667,15.9953333 11.6666667,14.8333333 C11.6666667,11.6121667 9.05566667,9 5.83333333,9 C2.61216667,9 0,11.6121667 0,14.8333333 C0,18.0545 2.61216667,20.6655 5.83333333,20.6655 C6.99533333,20.6655 8.07216667,20.3166667 8.981,19.731 L12.25,23 L14,21.25 L14,21.25 Z M2.33333333,14.8333333 C2.33333333,12.9001667 3.90133333,11.3333333 5.83333333,11.3333333 C7.7665,11.3333333 9.33333333,12.9001667 9.33333333,14.8333333 C9.33333333,16.7665 7.7665,18.3333333 5.83333333,18.3333333 C3.90133333,18.3333333 2.33333333,16.7665 2.33333333,14.8333333 L2.33333333,14.8333333 Z" id="Shape-6"></path>
                    </g>
                </g>
            </g>
        </g>
    </g>
</svg>