<?xml version="1.0" encoding="UTF-8" standalone="no"?>
<svg width="23px" height="19px" viewBox="0 0 23 19" version="1.1" xmlns="http://www.w3.org/2000/svg" xmlns:xlink="http://www.w3.org/1999/xlink" xmlns:sketch="http://www.bohemiancoding.com/sketch/ns">
    <!-- Generator: Sketch 3.0.3 (7891) - http://www.bohemiancoding.com/sketch -->
    <title>Shape</title>
    <desc>Created with Sketch.</desc>
    <defs></defs>
    <g id="Page-1" stroke="none" stroke-width="1" fill="none" fill-rule="evenodd" sketch:type="MSPage">
        <g id="L-•-HOMEPAGE" sketch:type="MSArtboardGroup" transform="translate(-841.000000, -855.000000)" fill="#959FA6">
            <g id="Group" sketch:type="MSLayerGroup" transform="translate(128.000000, 848.000000)">
                <g id="Shape" sketch:type="MSShapeGroup">
                    <g transform="translate(713.000000, 5.000000)">
                        <path d="M15.2306,2 C12.7358,2 10.7162,4.066625 10.7162,6.61475 C10.7162,6.977 10.7569,7.329125 10.8317,7.666625 C7.084,7.47425 3.7576,5.636 1.5312,2.844875 C1.144,3.5255 0.9207,4.31975 0.9207,5.164625 C0.9207,6.7655 1.7171,8.179625 2.9271,9.00425 C2.1868,8.98175 1.4916,8.773625 0.8855,8.4305 C0.8833,8.447375 0.8833,8.467625 0.8833,8.487875 C0.8833,10.72325 2.4387,12.5885 4.5045,13.012625 C4.1239,13.118375 3.7257,13.1735 3.3132,13.1735 C3.0228,13.1735 2.7401,13.1465 2.4651,13.091375 C3.0393,14.925125 4.708,16.259375 6.6814,16.29875 C5.137,17.535125 3.19,18.272 1.0758,18.272 C0.7117,18.272 0.3509,18.25175 -0.0011,18.209 C1.9954,19.517375 4.3681,20.282375 6.9168,20.282375 C15.2185,20.282375 19.7582,13.25 19.7582,7.15025 C19.7582,6.95 19.7538,6.752 19.7472,6.555125 C20.6294,5.902625 21.3939,5.08925 22,4.1645 C21.1904,4.532375 20.3203,4.779875 19.4073,4.89125 C20.3401,4.31975 21.0551,3.414125 21.3928,2.336375 C20.5205,2.86625 19.5558,3.249875 18.5251,3.45575 C17.7034,2.56025 16.5275,2 15.2306,2"></path>
                    </g>
                </g>
            </g>
        </g>
    </g>
</svg>