<?xml version="1.0" encoding="UTF-8" standalone="no"?>
<svg width="24px" height="18px" viewBox="0 0 24 18" version="1.1" xmlns="http://www.w3.org/2000/svg" xmlns:xlink="http://www.w3.org/1999/xlink" xmlns:sketch="http://www.bohemiancoding.com/sketch/ns">
    <!-- Generator: Sketch 3.0.3 (7891) - http://www.bohemiancoding.com/sketch -->
    <title>Shape</title>
    <desc>Created with Sketch.</desc>
    <defs></defs>
    <g id="Page-1" stroke="none" stroke-width="1" fill="none" fill-rule="evenodd" sketch:type="MSPage">
        <g id="L-•-HOMEPAGE" sketch:type="MSArtboardGroup" transform="translate(-888.000000, -855.000000)" fill="#959FA6">
            <g id="Group" sketch:type="MSLayerGroup" transform="translate(128.000000, 848.000000)">
                <g id="Shape" sketch:type="MSShapeGroup">
                    <g transform="translate(713.000000, 5.000000)">
                        <path d="M70.7589091,5.8835 C70.7589091,5.8835 70.5243636,4.120625 69.8065455,3.34325 C68.8923636,2.324 67.8712727,2.318375 67.4010909,2.259875 C64.0432727,2 59.0054545,2 59.0054545,2 L58.9945455,2 C58.9945455,2 53.9567273,2 50.5989091,2.25875 C50.1287273,2.318375 49.1076364,2.322875 48.1934545,3.342125 C47.4756364,4.118375 47.2410909,5.882375 47.2410909,5.882375 C47.2410909,5.882375 47,7.9535 47,10.02575 L47,11.9675 C47,14.038625 47.2410909,16.10975 47.2410909,16.10975 C47.2410909,16.10975 47.4756364,17.87375 48.1934545,18.65 C49.1076364,19.66925 50.3076364,19.63775 50.8421818,19.744625 C52.7589091,19.93925 59,20 59,20 C59,20 64.0432727,19.992125 67.4010909,19.733375 C67.8712727,19.67375 68.8923636,19.668125 69.8065455,18.648875 C70.5243636,17.87375 70.7589091,16.108625 70.7589091,16.108625 C70.7589091,16.108625 71,14.0375 71,11.966375 L71,10.024625 C71,7.9535 70.7589091,5.8835 70.7589091,5.8835 L70.7589091,5.8835 Z M56.5225455,14.31875 L56.5225455,7.128875 L63.0069091,10.73675 L56.5225455,14.31875 L56.5225455,14.31875 Z"></path>
                    </g>
                </g>
            </g>
        </g>
    </g>
</svg>