<?xml version="1.0" encoding="utf-8"?>
<!-- Generator: Adobe Illustrator 17.1.0, SVG Export Plug-In . SVG Version: 6.00 Build 0)  -->
<!DOCTYPE svg PUBLIC "-//W3C//DTD SVG 1.1//EN" "http://www.w3.org/Graphics/SVG/1.1/DTD/svg11.dtd">
<svg version="1.1" id="Layer_1" xmlns:sketch="http://www.bohemiancoding.com/sketch/ns"
	 xmlns="http://www.w3.org/2000/svg" xmlns:xlink="http://www.w3.org/1999/xlink" x="0px" y="0px" width="30px" height="30px"
	 viewBox="0 0 30 30" enable-background="new 0 0 30 30" xml:space="preserve">
<path id="test-icon" d="M13.6,17.6h11c0.3,0,0.5-0.2,0.5-0.5s-0.2-0.5-0.5-0.5h-11c-0.3,0-0.5,0.2-0.5,0.5S13.4,17.6,13.6,17.6z
	 M13.6,19.9h11c0.3,0,0.5-0.2,0.5-0.5S24.9,19,24.7,19h-11c-0.3,0-0.5,0.2-0.5,0.5S13.4,19.9,13.6,19.9z M28.7,10l-9.2-8.8
	C19.4,1.1,19.2,1,18.9,1H8.2c-2.2,0-4,1.7-4,3.9v11.8c0,0.5,0.4,0.9,0.9,0.9S6,17.2,6,16.7V4.9c0-1.2,1-2.1,2.2-2.1h9.5V6h-4.1
	c-0.3,0-0.5,0.2-0.5,0.5S13.3,7,13.6,7h4.1v0.9c0,0.2,0,0.4,0.1,0.5h-4.1c-0.3,0-0.5,0.2-0.5,0.5s0.2,0.5,0.5,0.5h4.4
	c0.6,1.4,2,2.4,3.7,2.4h5.4v13.3c0,1.2-1,2.1-2.2,2.1H9.1c-0.5,0-0.9,0.4-0.9,0.9S8.6,29,9.1,29H25c2.2,0,4-1.7,4-3.9V10.6
	C29,10.4,28.9,10.2,28.7,10z M10.3,15.5c-0.8-0.3-1.7,0-2,0.8l-3.4,7.9l-1-1.6c-0.4-0.7-1.4-0.9-2.1-0.5s-1,1.3-0.5,2l2.5,4
	c0.3,0.5,0.8,0.7,1.4,0.7s1.1-0.4,1.3-0.9l4.6-10.6C11.4,16.6,11.1,15.8,10.3,15.5z M10.9,6H8.5C8.2,6,8,6.2,8,6.4v2.3
	C8,9,8.2,9.2,8.5,9.2h2.4c0.3,0,0.5-0.2,0.5-0.5V6.4C11.4,6.2,11.1,6,10.9,6z M9,6.9h1.4v1.4H9V6.9z"/>
</svg>
