<?xml version="1.0" encoding="utf-8"?>
<!-- Generator: Adobe Illustrator 18.0.0, SVG Export Plug-In . SVG Version: 6.00 Build 0)  -->
<!DOCTYPE svg PUBLIC "-//W3C//DTD SVG 1.1//EN" "http://www.w3.org/Graphics/SVG/1.1/DTD/svg11.dtd">
<svg version="1.1" id="Layer_1" xmlns:sketch="http://www.bohemiancoding.com/sketch/ns"
	 xmlns="http://www.w3.org/2000/svg" xmlns:xlink="http://www.w3.org/1999/xlink" x="0px" y="0px" width="24px" height="24px"
	 viewBox="0 0 24 24" enable-background="new 0 0 24 24" xml:space="preserve">
<path id="Rectangle-184" sketch:type="MSShapeGroup" d="M11.5,14.8L11.5,14.8c-0.7,0-1.4-0.6-1.4-1.4V7c0-0.7,0.6-1.4,1.4-1.4
	s1.4,0.6,1.4,1.4v5h3.2c0.7,0,1.4,0.6,1.4,1.4c0,0.7-0.6,1.4-1.4,1.4H11.5L11.5,14.8L11.5,14.8z M11.5,23C17.3,23,22,18.3,22,12.5
	S17.3,2,11.5,2S1,6.7,1,12.5S5.7,23,11.5,23L11.5,23z"/>
</svg>
