<?xml version="1.0" encoding="utf-8"?>
<!-- Generator: Adobe Illustrator 18.0.0, SVG Export Plug-In . SVG Version: 6.00 Build 0)  -->
<!DOCTYPE svg PUBLIC "-//W3C//DTD SVG 1.1//EN" "http://www.w3.org/Graphics/SVG/1.1/DTD/svg11.dtd">
<svg version="1.1" id="Layer_1" xmlns:sketch="http://www.bohemiancoding.com/sketch/ns"
	 xmlns="http://www.w3.org/2000/svg" xmlns:xlink="http://www.w3.org/1999/xlink" x="0px" y="0px" width="22px" height="22px"
	 viewBox="0 0 22 22" enable-background="new 0 0 22 22" xml:space="preserve">
<path id="Shape" d="M13.1,1.5h-5C7.5,1.5,6.8,1.6,6,1.7C5.2,1.9,4.5,2.3,3.8,2.9c-1,1-1.6,2.1-1.6,3.3c0,1,0.4,1.9,1.1,2.7
	c0.7,0.8,1.7,1.2,3,1.3c0.3,0,0.5,0,0.8,0c0,0,0,0.2-0.1,0.3c0,0.2-0.1,0.3-0.1,0.6c0,0.4,0.1,0.7,0.2,0.9c0.1,0.3,0.3,0.5,0.5,0.8
	c-0.6,0-1.3,0.1-2.2,0.2c-0.9,0.2-1.7,0.5-2.5,0.9c-0.7,0.4-1.2,0.9-1.5,1.5C1.1,16,1,16.5,1,16.9c0,0.9,0.4,1.8,1.3,2.4
	c0.9,0.8,2.2,1.2,3.9,1.2c2.1,0,3.7-0.5,4.8-1.5c1.1-0.9,1.6-2,1.6-3.2c0-0.9-0.2-1.5-0.6-2.1c-0.4-0.5-0.9-1-1.4-1.4l-0.8-0.7
	c-0.1-0.1-0.2-0.3-0.4-0.4c-0.1-0.2-0.2-0.4-0.2-0.7S9.3,10,9.4,9.8c0.2-0.2,0.3-0.3,0.4-0.5c0.3-0.2,0.5-0.4,0.7-0.7
	c0.2-0.2,0.4-0.5,0.6-0.7c0.4-0.5,0.6-1.2,0.6-2.1c0-0.5-0.1-0.9-0.2-1.3c-0.1-0.4-0.3-0.7-0.5-1c0-0.2-0.2-0.5-0.4-0.7
	c-0.2-0.2-0.4-0.3-0.5-0.4h1.5L13.1,1.5L13.1,1.5z M10.4,15.1c0.4,0.5,0.6,1,0.6,1.7c0,0.8-0.3,1.4-0.9,1.9
	c-0.6,0.5-1.5,0.8-2.7,0.8c-1.3,0-2.3-0.3-3.1-0.9s-1.2-1.3-1.2-2.2c0-0.4,0.1-0.8,0.3-1.1C3.6,15,3.7,14.7,4,14.5
	c0.2-0.2,0.5-0.3,0.7-0.4c0.2-0.1,0.4-0.2,0.5-0.2c0.5-0.2,1.1-0.3,1.6-0.4c0.5,0,0.9-0.1,1,0c0.2,0,0.4,0,0.6,0
	C9.3,14.1,10,14.7,10.4,15.1L10.4,15.1z M9.6,7.8c-0.1,0.3-0.2,0.7-0.4,1c-0.4,0.4-1,0.7-1.6,0.7c-0.5,0-1-0.2-1.4-0.5
	s-0.7-0.7-1-1.2C4.7,6.8,4.4,5.9,4.4,5c0-0.7,0.2-1.3,0.5-1.9c0.4-0.5,1-0.8,1.7-0.8c0.5,0,1,0.2,1.4,0.4c0.3,0.4,0.7,0.8,0.9,1.2
	c0.5,1,0.8,2,0.8,3C9.6,7.2,9.6,7.4,9.6,7.8L9.6,7.8z M18,9.5v-3h-1v3h-3v1h3v3h1v-3h3v-1H18z"/>
</svg>
