<?xml version="1.0" encoding="UTF-8" standalone="no"?>
<svg width="22px" height="20px" viewBox="0 0 22 20" version="1.1" xmlns="http://www.w3.org/2000/svg" xmlns:xlink="http://www.w3.org/1999/xlink" xmlns:sketch="http://www.bohemiancoding.com/sketch/ns">
    <!-- Generator: Sketch 3.0.3 (7891) - http://www.bohemiancoding.com/sketch -->
    <title>Fill 1</title>
    <desc>Created with Sketch.</desc>
    <defs></defs>
    <g id="Page-1" stroke="none" stroke-width="1" fill="none" fill-rule="evenodd" sketch:type="MSPage">
        <g id="L-•-HOMEPAGE" sketch:type="MSArtboardGroup" transform="translate(-983.000000, -855.000000)" fill="#959FA6">
            <g id="Group" sketch:type="MSLayerGroup" transform="translate(128.000000, 848.000000)">
                <g id="Fill-1" sketch:type="MSShapeGroup">
                    <g transform="translate(713.000000, 5.000000)">
                        <path d="M161.469091,2 L144.426776,2 C143.612054,2 142.95048,2.64601852 142.95048,3.44101852 L142.95048,20.5568519 C142.95048,21.3533333 143.612054,22 144.426776,22 L161.469091,22 C162.284739,22 162.95048,21.3533333 162.95048,20.5568519 L162.95048,3.44101852 C162.95048,2.64601852 162.284739,2 161.469091,2 Z M147.460076,4.75351852 C148.42157,4.75351852 149.2031,5.52435185 149.2031,6.47305556 C149.2031,7.42277778 148.42157,8.19361111 147.460076,8.19361111 C146.496047,8.19361111 145.71677,7.42277778 145.71677,6.47305556 C145.71677,5.52435185 146.496047,4.75351852 147.460076,4.75351852 Z M145.9555,9.49851852 L148.96437,9.49851852 L148.96437,19.0428704 L145.9555,19.0428704 L145.9555,9.49851852 Z M150.850651,9.49851852 L153.735978,9.49851852 L153.735978,10.8021296 L153.777002,10.8021296 C154.178611,10.0519444 155.159913,9.26055556 156.623088,9.26055556 C159.666411,9.26055556 160.228549,11.2368519 160.228549,13.8076852 L160.228549,19.0428704 L157.224468,19.0428704 L157.224468,14.4016667 C157.224468,13.2941667 157.202407,11.8705556 155.661125,11.8705556 C154.096092,11.8705556 153.857362,13.0763889 153.857362,14.3212963 L153.857362,19.0428704 L150.850651,19.0428704 L150.850651,9.49851852 Z"></path>
                    </g>
                </g>
            </g>
        </g>
    </g>
</svg>