<?xml version="1.0" encoding="utf-8"?>
<!-- Generator: Adobe Illustrator 18.0.0, SVG Export Plug-In . SVG Version: 6.00 Build 0)  -->
<!DOCTYPE svg PUBLIC "-//W3C//DTD SVG 1.1//EN" "http://www.w3.org/Graphics/SVG/1.1/DTD/svg11.dtd">
<svg version="1.1" id="Layer_2" xmlns="http://www.w3.org/2000/svg" xmlns:xlink="http://www.w3.org/1999/xlink" x="0px" y="0px"
	 width="14px" height="14px" viewBox="0 0 14 14" enable-background="new 0 0 14 14" xml:space="preserve">
<path d="M13.3,8.9l0.2-1.8L11.8,7c0-0.7-0.1-1.3-0.4-1.9l0,0l1.5-1.3l-1.2-1.4l-1.4,1.2C9.9,3.1,9.3,2.7,8.6,2.5l0.2-1.7L7,0.6
	L6.8,2.2C6,2.2,5.3,2.4,4.6,2.8L3.3,1.4L2,2.5l1.2,1.4c-0.4,0.5-0.8,1.2-1,1.9L0.7,5.6L0.5,7.4l1.6,0.2c0.1,0.6,0.2,1.2,0.5,1.7
	l-1.5,1.3l1.2,1.4l1.4-1.2c0.6,0.5,1.2,0.9,2,1.1l-0.2,1.4l1.8,0.2l0.2-1.5c0.8-0.1,1.5-0.3,2.1-0.7l1.2,1.4l1.4-1.2L10.8,10
	c0.3-0.4,0.5-0.8,0.7-1.3L13.3,8.9z M9.3,7.2C9.2,8.5,8,9.4,6.8,9.2c-1.3-0.2-2.1-1.3-2-2.5c0.2-1.3,1.3-2.1,2.5-2
	C8.6,4.8,9.5,6,9.3,7.2z"/>
</svg>
