<?xml version="1.0" encoding="utf-8"?>
<!-- Generator: Adobe Illustrator 17.1.0, SVG Export Plug-In . SVG Version: 6.00 Build 0)  -->
<!DOCTYPE svg PUBLIC "-//W3C//DTD SVG 1.1//EN" "http://www.w3.org/Graphics/SVG/1.1/DTD/svg11.dtd">
<svg version="1.1" id="Layer_1" xmlns:sketch="http://www.bohemiancoding.com/sketch/ns"
	 xmlns="http://www.w3.org/2000/svg" xmlns:xlink="http://www.w3.org/1999/xlink" x="0px" y="0px" width="20px" height="20px"
	 viewBox="-1 -2.5 20 20" enable-background="new -1 -2.5 20 20" xml:space="preserve">
<path id="menu" d="M1.5,0C0.7,0,0,0.7,0,1.5l0,0C0,2.3,0.7,3,1.5,3h15C17.3,3,18,2.3,18,1.5l0,0
	C18,0.7,17.3,0,16.5,0H1.5z M1.5,6C0.7,6,0,6.7,0,7.5l0,0C0,8.3,0.7,9,1.5,9h15C17.3,9,18,8.3,18,7.5l0,0C18,6.7,17.3,6,16.5,6H1.5z
	 M1.5,12C0.7,12,0,12.7,0,13.5l0,0C0,14.3,0.7,15,1.5,15h15c0.8,0,1.5-0.7,1.5-1.5l0,0c0-0.8-0.7-1.5-1.5-1.5H1.5z"/>
</svg>
