<?xml version="1.0" encoding="utf-8"?>
<!-- Generator: Adobe Illustrator 17.1.0, SVG Export Plug-In . SVG Version: 6.00 Build 0)  -->
<!DOCTYPE svg PUBLIC "-//W3C//DTD SVG 1.1//EN" "http://www.w3.org/Graphics/SVG/1.1/DTD/svg11.dtd">
<svg version="1.1" id="Layer_1" xmlns:sketch="http://www.bohemiancoding.com/sketch/ns"
	 xmlns="http://www.w3.org/2000/svg" xmlns:xlink="http://www.w3.org/1999/xlink" x="0px" y="0px" width="20px" height="20px"
	 viewBox="0 -1 20 20" enable-background="new 0 -1 20 20" xml:space="preserve">
<path id="search" d="M19,15.7l-4.2-4.2c0.8-1.2,1.2-2.6,1.2-4C16,3.4,12.6,0,8.5,0C4.4,0,1,3.4,1,7.5
	S4.4,15,8.5,15c1.5,0,2.9-0.4,4-1.2l4.2,4.2L19,15.7L19,15.7z M4,7.5C4,5,6,3,8.5,3C11,3,13,5,13,7.5S11,12,8.5,12C6,12,4,10,4,7.5
	L4,7.5z"/>
</svg>
