<?xml version="1.0" encoding="utf-8"?>
<!-- Generator: Adobe Illustrator 18.0.0, SVG Export Plug-In . SVG Version: 6.00 Build 0)  -->
<!DOCTYPE svg PUBLIC "-//W3C//DTD SVG 1.1//EN" "http://www.w3.org/Graphics/SVG/1.1/DTD/svg11.dtd">
<svg version="1.1" id="Layer_1" xmlns:sketch="http://www.bohemiancoding.com/sketch/ns"
	 xmlns="http://www.w3.org/2000/svg" xmlns:xlink="http://www.w3.org/1999/xlink" x="0px" y="0px" width="40px" height="40px"
	 viewBox="0 0 40 40" enable-background="new 0 0 40 40" xml:space="preserve">
<path d="M27.7,24.4L21,12.1c-0.8-1.5-2.1-1.5-2.9,0l-6.6,12.3c-0.8,1.4-0.1,2.6,1.6,2.6h13C27.8,27,28.5,25.8,27.7,24.4z M18.5,15.4
	c0.3-0.3,0.7-0.4,1.1-0.4s0.8,0.1,1.1,0.4c0.3,0.3,0.4,0.6,0.4,1c0,0.2,0,0.5-0.1,0.9c-0.1,0.3-0.6,2.3-0.9,3.7h-1
	c-0.3-1.4-0.8-3.3-0.9-3.6c-0.1-0.4-0.1-0.7-0.1-0.9C18.1,16.1,18.2,15.7,18.5,15.4z M20.7,24.6C20.4,24.9,20,25,19.6,25
	s-0.8-0.1-1.1-0.4C18.2,24.3,18,24,18,23.5c0-0.4,0.2-0.8,0.5-1.1c0.3-0.3,0.7-0.4,1.1-0.4c0.4,0,0.8,0.1,1.1,0.4
	c0.3,0.3,0.5,0.7,0.5,1.1C21.1,23.9,21,24.3,20.7,24.6z"/>
</svg>
