<?xml version="1.0" encoding="utf-8"?>
<!-- Generator: Adobe Illustrator 18.0.0, SVG Export Plug-In . SVG Version: 6.00 Build 0)  -->
<!DOCTYPE svg PUBLIC "-//W3C//DTD SVG 1.1//EN" "http://www.w3.org/Graphics/SVG/1.1/DTD/svg11.dtd">
<svg version="1.1" id="Layer_1" xmlns:sketch="http://www.bohemiancoding.com/sketch/ns"
	 xmlns="http://www.w3.org/2000/svg" xmlns:xlink="http://www.w3.org/1999/xlink" x="0px" y="0px" width="40px" height="40px"
	 viewBox="0 0 40 40" enable-background="new 0 0 40 40" xml:space="preserve">
<g>
	<g id="XMLID_1_">
		<g>
			<path d="M31.7,19.6c0.2,0.2,0.2,0.5,0,0.7l-7.3,7.3c-0.2,0.2-0.5,0.2-0.7,0l-0.3-0.3c-0.2-0.2-0.2-0.5,0-0.7l6.3-6.3
				c0.2-0.2,0.2-0.5,0-0.7l-6.3-6.3c-0.2-0.2-0.2-0.5,0-0.7l0.3-0.3c0.2-0.2,0.5-0.2,0.7,0L31.7,19.6z"/>
			<circle cx="24" cy="20" r="1"/>
			<circle cx="20" cy="20" r="1"/>
			<circle cx="16" cy="20" r="1"/>
			<path d="M16.6,26.6c0.2,0.2,0.2,0.5,0,0.7l-0.3,0.3c-0.2,0.2-0.5,0.2-0.7,0l-7.3-7.3c-0.2-0.2-0.2-0.5,0-0.7l7.3-7.3
				c0.2-0.2,0.5-0.2,0.7,0l0.3,0.3c0.2,0.2,0.2,0.5,0,0.7l-6.3,6.3c-0.2,0.2-0.2,0.5,0,0.7L16.6,26.6z"/>
		</g>
	</g>
</g>
</svg>
