<?xml version="1.0" encoding="utf-8"?>
<!-- Generator: Adobe Illustrator 18.0.0, SVG Export Plug-In . SVG Version: 6.00 Build 0)  -->
<!DOCTYPE svg PUBLIC "-//W3C//DTD SVG 1.1//EN" "http://www.w3.org/Graphics/SVG/1.1/DTD/svg11.dtd">
<svg version="1.1" id="Layer_1" xmlns:sketch="http://www.bohemiancoding.com/sketch/ns"
	 xmlns="http://www.w3.org/2000/svg" xmlns:xlink="http://www.w3.org/1999/xlink" x="0px" y="0px" width="40px" height="40px"
	 viewBox="0 0 40 40" enable-background="new 0 0 40 40" xml:space="preserve">
<path id="Rectangle-943" sketch:type="MSShapeGroup" d="M20,24v4h3v-4H20L20,24z M16,19h3c0-2.2-1.8-4-4-4s-4,1.8-4,4s1.8,4,4,4h9
	v-3h-5.1l0,0H15h-0.1c-0.5,0-0.9-0.4-0.9-0.9v-0.2c0-0.5,0.4-0.9,0.9-0.9h0.2C15.6,18,16,18.4,16,19L16,19L16,19z M20,15v4h3v-4h2
	l-3.5-4L18,15H20L20,15z M16,24v4h3v-4H16L16,24z M28,21.5L24,25v-7L28,21.5L28,21.5z"/>
</svg>
