<?xml version="1.0" encoding="utf-8"?>
<!-- Generator: Adobe Illustrator 18.0.0, SVG Export Plug-In . SVG Version: 6.00 Build 0)  -->
<!DOCTYPE svg PUBLIC "-//W3C//DTD SVG 1.1//EN" "http://www.w3.org/Graphics/SVG/1.1/DTD/svg11.dtd">
<svg version="1.1" id="Layer_1" xmlns:sketch="http://www.bohemiancoding.com/sketch/ns"
	 xmlns="http://www.w3.org/2000/svg" xmlns:xlink="http://www.w3.org/1999/xlink" x="0px" y="0px" width="40px" height="40px"
	 viewBox="0 0 40 40" enable-background="new 0 0 40 40" xml:space="preserve">
<g>
	<path d="M23.1,13L23.1,13c-0.1-0.5-0.6-1-1.1-1H12c-0.6,0-1,0.4-1,1v9c0,0.5,0.5,1,1,1h0.3c0.6-1.2,1.8-2,3.2-2
		c1.4,0,2.6,0.8,3.2,2h1.7c0.5-1,1.5-1.8,2.7-2V13z"/>
	<path d="M15.5,22c-1.4,0-2.5,1.1-2.5,2.5s1.1,2.5,2.5,2.5c1.4,0,2.5-1.1,2.5-2.5S16.9,22,15.5,22z M15.5,25.5c-0.6,0-1-0.4-1-1
		s0.4-1,1-1c0.6,0,1,0.4,1,1S16.1,25.5,15.5,25.5z"/>
	<path d="M27,15h-2c-0.5,0-1,0.5-1,1v5c1.2,0.2,2.2,1,2.7,2H27c0.5,0,1-0.5,1-1v-6C28,15.4,27.6,15,27,15z M27,19h-2v-2.5
		c0-0.3,0.2-0.5,0.5-0.5h1c0.3,0,0.5,0.2,0.5,0.5V19z"/>
	<path d="M23.5,22c-1.4,0-2.5,1.1-2.5,2.5s1.1,2.5,2.5,2.5s2.5-1.1,2.5-2.5S24.9,22,23.5,22z M23.5,25.5c-0.6,0-1-0.4-1-1s0.4-1,1-1
		s1,0.4,1,1S24.1,25.5,23.5,25.5z"/>
</g>
</svg>
