<?xml version="1.0" encoding="utf-8"?>
<!-- Generator: Adobe Illustrator 18.0.0, SVG Export Plug-In . SVG Version: 6.00 Build 0)  -->
<!DOCTYPE svg PUBLIC "-//W3C//DTD SVG 1.1//EN" "http://www.w3.org/Graphics/SVG/1.1/DTD/svg11.dtd">
<svg version="1.1" id="Layer_1" xmlns:sketch="http://www.bohemiancoding.com/sketch/ns"
	 xmlns="http://www.w3.org/2000/svg" xmlns:xlink="http://www.w3.org/1999/xlink" x="0px" y="0px" width="40px" height="40px"
	 viewBox="0 0 40 40" enable-background="new 0 0 40 40" xml:space="preserve">
<path id="Rectangle-182_1_" sketch:type="MSShapeGroup" d="M27.1,17.1c1.1,0.3,1.9,1.3,1.9,2.4V23c0,0.7-0.4,1.4-1,1.7v1.8
	c0,0.8-0.7,1.5-1.5,1.5S25,27.3,25,26.5V25H15l0,0v1.5c0,0.8-0.7,1.5-1.5,1.5S12,27.3,12,26.5v-1.8c-0.6-0.3-1-1-1-1.7v-3.5
	c0-1.2,0.8-2.2,1.9-2.4l0.3-2.1c0.2-1.6,1.7-3,3.3-3h7c1.7,0,3.1,1.3,3.3,3L27.1,17.1L27.1,17.1L27.1,17.1z M16.5,13
	c-1.1,0-2.1,0.9-2.2,2L14,17h12l-0.3-2c-0.1-1.1-1.1-2-2.2-2H16.5L16.5,13z M13.5,18c-0.8,0-1.5,0.7-1.5,1.5s0.7,1.5,1.5,1.5
	s1.5-0.7,1.5-1.5S14.3,18,13.5,18L13.5,18z M18,20c-0.5,0-1,0.4-1,1s0.5,1,1,1h4c0.5,0,1-0.4,1-1s-0.5-1-1-1H18L18,20z M26.5,18
	c-0.8,0-1.5,0.7-1.5,1.5s0.7,1.5,1.5,1.5s1.5-0.7,1.5-1.5S27.3,18,26.5,18L26.5,18z"/>
</svg>
