<?xml version="1.0" encoding="utf-8"?>
<!-- Generator: Adobe Illustrator 17.1.0, SVG Export Plug-In . SVG Version: 6.00 Build 0)  -->
<!DOCTYPE svg PUBLIC "-//W3C//DTD SVG 1.1//EN" "http://www.w3.org/Graphics/SVG/1.1/DTD/svg11.dtd">
<svg version="1.1" id="Layer_1" xmlns:sketch="http://www.bohemiancoding.com/sketch/ns"
	 xmlns="http://www.w3.org/2000/svg" xmlns:xlink="http://www.w3.org/1999/xlink" x="0px" y="0px" width="48px" height="48px"
	 viewBox="0 0 48 48" enable-background="new 0 0 48 48" xml:space="preserve">
<g>
	<path id="Rectangle-183" d="M29,22c-2,0.2-3.5,1.9-3.5,4v3c0,0.8,0.2,1.5,0.5,2.2V31h1v-6h1v6c0,0.6,0.4,1,1,1h3c0.6,0,1-0.4,1-1
		v-6h1v6h1v0.2c0.3-0.7,0.5-1.4,0.5-2.2v-3c0-2-1.5-3.7-3.5-4c-0.1,0.3-0.6,3-1.5,3C29.6,25,29.1,22.3,29,22z M28.7,20.5
		c0.5,0.6,1.1,1,1.8,1s1.3-0.4,1.8-1l0,0h0.2c0.5,0,1.5,0.5,1.5,0s-1-1.5-1-2c0-1.4-1.1-2.5-2.5-2.5S28,17.1,28,18.5
		c0,0.5-1,1.5-1,2s1,0,1.5,0H28.7L28.7,20.5z"/>
	<path id="Rectangle-183_1_" d="M15,31v-6h-1v6h-1v0.2c-0.3-0.7-0.5-1.4-0.5-2.2v-3c0-2.2,1.8-4,4-4h0h2c2.2,0,4,1.8,4,4v3
		c0,0.8-0.2,1.5-0.5,2.2V31h-1v-6h-1v6c0,0.6-0.4,1-1,1h-3C15.4,32,15,31.6,15,31z M17.5,21c1.4,0,2.5-1.1,2.5-2.5S18.9,16,17.5,16
		S15,17.1,15,18.5S16.1,21,17.5,21z M17,22l-0.5,6l1,1l1-1L18,22H17z"/>
</g>
</svg>
