<?xml version="1.0" encoding="utf-8"?>
<!-- Generator: Adobe Illustrator 18.0.0, SVG Export Plug-In . SVG Version: 6.00 Build 0)  -->
<!DOCTYPE svg PUBLIC "-//W3C//DTD SVG 1.1//EN" "http://www.w3.org/Graphics/SVG/1.1/DTD/svg11.dtd">
<svg version="1.1" id="Layer_1" xmlns:sketch="http://www.bohemiancoding.com/sketch/ns"
	 xmlns="http://www.w3.org/2000/svg" xmlns:xlink="http://www.w3.org/1999/xlink" x="0px" y="0px" width="40px" height="40px"
	 viewBox="0 0 40 40" enable-background="new 0 0 40 40" xml:space="preserve">
<path id="Rectangle-171" sketch:type="MSShapeGroup" d="M15,28c-0.6,0-0.9-0.4-0.8-1l1.5-8H19v9H15z M24,28c0.5,0,0.9-0.4,0.8-1
	l-1.5-8H20v9H24z M19,12h-1c-0.6,0-1.1,0.4-1.2,1l-0.4,2H19V12L19,12z M30,18v-2H9v2h2v2h2v-2h13v2h2v-2H30z M20,12h1
	c0.6,0,1.1,0.4,1.2,1l0.4,2H20V12L20,12L20,12z"/>
</svg>
