<?xml version="1.0" encoding="utf-8"?>
<!-- Generator: Adobe Illustrator 18.0.0, SVG Export Plug-In . SVG Version: 6.00 Build 0)  -->
<!DOCTYPE svg PUBLIC "-//W3C//DTD SVG 1.1//EN" "http://www.w3.org/Graphics/SVG/1.1/DTD/svg11.dtd">
<svg version="1.1" id="Layer_1" xmlns:sketch="http://www.bohemiancoding.com/sketch/ns"
	 xmlns="http://www.w3.org/2000/svg" xmlns:xlink="http://www.w3.org/1999/xlink" x="0px" y="0px" width="40px" height="40px"
	 viewBox="4 4 40 40" enable-background="new 4 4 40 40" xml:space="preserve">
<g>
	<path d="M12.8,15.8c0-0.9,0.8-0.9,0.8-0.9h14.8c0,0,0.8,0,0.8,0.9v2.3h0.8v-2.4c0-1.7-1.6-1.7-1.6-1.7H13.6c0,0-1.6,0-1.6,1.7v12.2
		c0,1.7,1.6,1.7,1.6,1.7h5.7v1.6h-1.6v0.8h6.6v-0.8h-1.6v-1.6h2.5v-0.9H13.6c0,0-0.8,0-0.8-0.9v-2.3h12.3v-0.8H12.8V15.8z"/>
	<circle cx="21" cy="27.1" r="0.8"/>
	<path d="M34.2,18.9h-7.4c-0.4,0-0.8,0.3-0.8,0.8v11.5c0,0.5,0.3,0.8,0.8,0.8h7.4c0.4,0,0.8-0.3,0.8-0.8V19.8
		C35,19.3,34.7,18.9,34.2,18.9z M34.2,29.6h-7.4v-9.9h7.4V29.6z"/>
</g>
</svg>
