<?xml version="1.0" encoding="utf-8"?>
<!-- Generator: Adobe Illustrator 18.0.0, SVG Export Plug-In . SVG Version: 6.00 Build 0)  -->
<!DOCTYPE svg PUBLIC "-//W3C//DTD SVG 1.1//EN" "http://www.w3.org/Graphics/SVG/1.1/DTD/svg11.dtd">
<svg version="1.1" id="Layer_1" xmlns:sketch="http://www.bohemiancoding.com/sketch/ns"
	 xmlns="http://www.w3.org/2000/svg" xmlns:xlink="http://www.w3.org/1999/xlink" x="0px" y="0px" width="40px" height="40px"
	 viewBox="0 0 40 40" enable-background="new 0 0 40 40" xml:space="preserve">
<path d="M27.1,13H11.9c-1.1,0-1.9,0.9-1.9,2v9c0,1.1,0.9,2,1.9,2h15.2c1,0,1.9-0.9,1.9-2v-9C29,13.9,28.1,13,27.1,13z M21.5,17h2
	c0.3,0,0.5,0.2,0.5,0.5S23.8,18,23.5,18h-2c-0.3,0-0.5-0.2-0.5-0.5S21.2,17,21.5,17z M15.5,17c0.8,0,1.5,0.7,1.5,1.5
	S16.3,20,15.5,20c-0.8,0-1.5-0.7-1.5-1.5S14.7,17,15.5,17z M19,24h-7v-1.5c0-0.8,0.7-1.5,1.5-1.5h0.9c0.4,0.7,1.1,1.5,1.1,1.5
	s0.7-0.8,1.1-1.5h0.9c0.8,0,1.5,0.7,1.5,1.5V24z M25.5,22h-4c-0.3,0-0.5-0.2-0.5-0.5s0.2-0.5,0.5-0.5h4c0.3,0,0.5,0.2,0.5,0.5
	S25.8,22,25.5,22z M26.6,20h-5.1c-0.2,0-0.4-0.2-0.4-0.5s0.2-0.5,0.4-0.5h5.1c0.2,0,0.4,0.2,0.4,0.5S26.8,20,26.6,20z"/>
</svg>
