<?xml version="1.0" encoding="utf-8"?>
<!-- Generator: Adobe Illustrator 16.0.0, SVG Export Plug-In . SVG Version: 6.00 Build 0)  -->
<!DOCTYPE svg PUBLIC "-//W3C//DTD SVG 1.1//EN" "http://www.w3.org/Graphics/SVG/1.1/DTD/svg11.dtd">
<svg version="1.1" id="Layer_1" xmlns:sketch="http://www.bohemiancoding.com/sketch/ns"
	 xmlns="http://www.w3.org/2000/svg" xmlns:xlink="http://www.w3.org/1999/xlink" x="0px" y="0px" width="48px" height="48px"
	 viewBox="0 0 48 48" enable-background="new 0 0 48 48" xml:space="preserve">
<g>
	<path d="M22.6,23.9c1.4,0,2.5-1.1,2.5-2.5s-1.1-2.5-2.5-2.5s-2.5,1.2-2.5,2.6S21.3,23.9,22.6,23.9z"/>
	<path d="M32.3,28.5c0.9-1.4,1.3-2.9,1.3-4.5c0-5.2-4.899-9.5-11-9.5s-11,4.3-11,9.5s4.9,9.5,11,9.5c1.8,0,3.5-0.4,4.9-1h8.8
		L32.3,28.5z M12.7,24c0-4.7,4.5-8.5,10-8.5c5.6,0,10,3.8,10,8.5c0,1.5-0.5,3-1.4,4.3L31,28.6l2.9,2.9H27.6v-2.6c0-2.2-1.8-4-4-4
		h-0.5l0.5,6l-1,1l-1-1l0.5-6h-0.5c-2.2,0-4,1.8-4,4V31.3C14.7,29.9,12.7,27.1,12.7,24z"/>
</g>
</svg>
