<?xml version="1.0" encoding="utf-8"?>
<!-- Generator: Adobe Illustrator 18.0.0, SVG Export Plug-In . SVG Version: 6.00 Build 0)  -->
<!DOCTYPE svg PUBLIC "-//W3C//DTD SVG 1.1//EN" "http://www.w3.org/Graphics/SVG/1.1/DTD/svg11.dtd">
<svg version="1.1" id="Layer_1" xmlns:sketch="http://www.bohemiancoding.com/sketch/ns"
     xmlns="http://www.w3.org/2000/svg" xmlns:xlink="http://www.w3.org/1999/xlink" x="0px" y="0px" width="40px" height="40px"
     viewBox="0 0 40 40" enable-background="new 0 0 40 40" xml:space="preserve">

<path sketch:type="MSShapeGroup" d="M14,12v12.5c0,0.3-0.2,0.5-0.5,0.5S13,24.8,13,24.5V14h-1c-0.6,0-1,0.4-1,1v10c0,1.1,0.9,2,2,2h13c1.7,0,3-1.3,3-3V12H14z
	 M22.5,23h-6c-0.3,0-0.5-0.2-0.5-0.5s0.2-0.5,0.5-0.5h6c0.3,0,0.5,0.2,0.5,0.5S22.8,23,22.5,23z M16,20.5c0-0.3,0.2-0.5,0.5-0.5h5
	c0.3,0,0.5,0.2,0.5,0.5S21.8,21,21.5,21h-5C16.2,21,16,20.8,16,20.5z M23.5,19h-7c-0.3,0-0.5-0.2-0.5-0.5s0.2-0.5,0.5-0.5h7
	c0.3,0,0.5,0.2,0.5,0.5S23.8,19,23.5,19z M27,15.5c0,0.3-0.2,0.5-0.5,0.5h-10c-0.3,0-0.5-0.2-0.5-0.5v-1c0-0.2,0.2-0.5,0.5-0.5h10
	c0.3,0,0.5,0.3,0.5,0.5V15.5z"/>
</svg>
