<?xml version="1.0" encoding="utf-8"?>
<!-- Generator: Adobe Illustrator 18.0.0, SVG Export Plug-In . SVG Version: 6.00 Build 0)  -->
<!DOCTYPE svg PUBLIC "-//W3C//DTD SVG 1.1//EN" "http://www.w3.org/Graphics/SVG/1.1/DTD/svg11.dtd">
<svg version="1.1" id="Layer_1" xmlns:sketch="http://www.bohemiancoding.com/sketch/ns"
	 xmlns="http://www.w3.org/2000/svg" xmlns:xlink="http://www.w3.org/1999/xlink" x="0px" y="0px" width="40px" height="40px"
	 viewBox="0 0 40 40" enable-background="new 0 0 40 40" xml:space="preserve">
<path d="M27.6,18.1l-6.7-6.7c-0.8-0.8-2-0.8-2.8,0l-6.7,6.7c-0.8,0.8-0.8,2,0,2.8l6.7,6.7c0.8,0.8,2,0.8,2.8,0l6.7-6.7
	C28.4,20.1,28.4,18.9,27.6,18.1z M19.5,13c0.8,0,1.5,0.7,1.5,1.5S20.3,16,19.5,16c-0.8,0-1.5-0.7-1.5-1.5S18.7,13,19.5,13z M22,20v5
	h-1l-0.3-3.4L20,22v3h-1v-3.5L17.5,23l1,1h-2l-3-3l1.8-1c1-0.5,1.7-0.1,1.7,1v1l1-1l0.8-4.1C19,17,19.3,17,19.5,17
	c0.7,0,1.3-0.3,1.8-0.7l2.2,2.2L22,20z"/>
</svg>
