<?xml version="1.0" encoding="utf-8"?>
<!-- Generator: Adobe Illustrator 18.0.0, SVG Export Plug-In . SVG Version: 6.00 Build 0)  -->
<!DOCTYPE svg PUBLIC "-//W3C//DTD SVG 1.1//EN" "http://www.w3.org/Graphics/SVG/1.1/DTD/svg11.dtd">
<svg version="1.1" id="Layer_1" xmlns:sketch="http://www.bohemiancoding.com/sketch/ns"
	 xmlns="http://www.w3.org/2000/svg" xmlns:xlink="http://www.w3.org/1999/xlink" x="0px" y="0px" width="14px" height="14px"
	 viewBox="0 0 14 14" enable-background="new 0 0 14 14" xml:space="preserve">
<path id="Rectangle-184" sketch:type="MSShapeGroup" d="M6.8,8.1L6.8,8.1c-0.3,0-0.7-0.3-0.7-0.7V3.8c0-0.3,0.2-0.7,0.7-0.7
	c0.4,0,0.7,0.2,0.7,0.7v3h1.5c0.3,0,0.7,0.2,0.7,0.7c0,0.3-0.2,0.7-0.7,0.7H6.8L6.8,8.1L6.8,8.1z M7,12c2.8,0,5-2.2,5-5S9.8,2,7,2
	S2,4.2,2,7S4.2,12,7,12L7,12z"/>
</svg>
