<?xml version="1.0" encoding="utf-8"?>
<!-- Generator: Adobe Illustrator 17.1.0, SVG Export Plug-In . SVG Version: 6.00 Build 0)  -->
<!DOCTYPE svg PUBLIC "-//W3C//DTD SVG 1.1//EN" "http://www.w3.org/Graphics/SVG/1.1/DTD/svg11.dtd">
<svg version="1.1" id="Layer_1" xmlns="http://www.w3.org/2000/svg" xmlns:xlink="http://www.w3.org/1999/xlink" x="0px" y="0px"
	 width="22px" height="22px" viewBox="0 0 22 22" enable-background="new 0 0 22 22" xml:space="preserve">
<path id="colourise" d="M18.7,11.4c-1,4.3-5.6,6.7-9.7,6.7c-3.3,0-6.1-1.3-8-4.1c1,0.9,2.3,1.4,3.6,1.4c1.4,0,2.7-0.6,3.7-1.6
	c-0.4,0.1-1.4-0.2-1.4-0.8c0-0.4,0.6-0.9,0.9-0.9c-0.9,0.2-1.9-0.2-2.4-1.2c0.4-0.4,0.9-0.6,1.4-0.6c-1.3-0.1-2.1-0.9-2.3-2
	c0.1-0.1,0.6-0.1,1-0.1h0.1C4.7,7.6,3.9,6.7,4,5.6V5.4C5.7,6,7.4,6.9,9.1,7.9c0.4,0.4,1,0.7,1.4,1.3c0.6-1.7,1.4-4,3.1-5
	c0,0.3-0.1,0.4-0.3,0.6c0.4-0.6,1.1-0.6,1.6-0.9c0,0.6-0.6,0.6-1,0.9c0.6-0.1,1.1-0.6,1.6-0.6c0.1,0,0.3,0,0.3,0.3
	c0,0.4-1.4,0.6-1.7,0.7c2.3-0.3,4,1.9,4.6,4c0.3,0.1,0.4,0.1,0.7,0.1c0.4,0,1.3-0.1,1.6-0.4c-0.4,0.9-1.4,1.3-2.3,1.4
	c0.4,0.3,1.1,0.3,1.6,0.3c0.3,0,0.4,0,0.6,0C20.6,11.1,19.7,11.4,18.7,11.4z"/>
</svg>
