<?xml version="1.0" encoding="utf-8"?>
<!-- Generator: Adobe Illustrator 18.0.0, SVG Export Plug-In . SVG Version: 6.00 Build 0)  -->
<!DOCTYPE svg PUBLIC "-//W3C//DTD SVG 1.1//EN" "http://www.w3.org/Graphics/SVG/1.1/DTD/svg11.dtd">
<svg version="1.1" id="Layer_1" xmlns:sketch="http://www.bohemiancoding.com/sketch/ns"
	 xmlns="http://www.w3.org/2000/svg" xmlns:xlink="http://www.w3.org/1999/xlink" x="0px" y="0px" width="16px" height="16px"
	 viewBox="0 0 16 16" enable-background="new 0 0 16 16" xml:space="preserve">
<path d="M14.5,10.4L10,2.6c-0.8-1.4-2.2-1.4-3,0l-4.5,7.8C1.7,11.8,2.3,13,4,13h9C14.7,13,15.3,11.8,14.5,10.4z M9.3,11.3
	c-0.2,0.2-0.5,0.4-0.9,0.4c-0.3,0-0.6-0.1-0.9-0.4c-0.2-0.2-0.4-0.5-0.4-0.9c0-0.3,0.1-0.6,0.4-0.9C7.7,9.3,8,9.1,8.4,9.1
	c0.3,0,0.6,0.1,0.9,0.4c0.2,0.2,0.4,0.5,0.4,0.9S9.6,11.1,9.3,11.3z M9.6,5.9c0,0.2-0.4,1.5-0.6,2.6H8C7.7,7.4,7.3,6.2,7.3,5.9
	C7.2,5.6,7.2,5.4,7.2,5.2c0-0.3,0.1-0.6,0.4-0.8C7.8,4.1,8.1,4,8.4,4C8.7,4,9,4.1,9.3,4.4c0.2,0.2,0.4,0.5,0.4,0.8
	C9.7,5.4,9.7,5.6,9.6,5.9z"/>
</svg>
