<?xml version="1.0" encoding="utf-8"?>
<!-- Generator: Adobe Illustrator 17.1.0, SVG Export Plug-In . SVG Version: 6.00 Build 0)  -->
<!DOCTYPE svg PUBLIC "-//W3C//DTD SVG 1.1 Tiny//EN" "http://www.w3.org/Graphics/SVG/1.1/DTD/svg11-tiny.dtd">
<svg version="1.1" baseProfile="tiny" id="Layer_1" xmlns="http://www.w3.org/2000/svg" xmlns:xlink="http://www.w3.org/1999/xlink"
	 x="0px" y="0px" width="14px" height="14px" viewBox="0 0 14 14" xml:space="preserve">
<path id="colourise" d="M10.5,0.4H3.7C2.8,0.4,2,1.2,2,2.1v9.8c0,0.9,0.8,1.7,1.7,1.7h6.6c0.9,0,1.7-0.8,1.7-1.7V2.1
	C12,1.2,11.3,0.4,10.5,0.4z M5.5,11.9H3.9v-1.7h1.7L5.5,11.9L5.5,11.9z M5.5,9.4H3.9V7.8h1.7L5.5,9.4L5.5,9.4z M5.5,7H3.9V5.3h1.7
	L5.5,7L5.5,7z M7.8,11.9H6.3v-1.7h1.6L7.8,11.9L7.8,11.9z M7.8,9.4H6.3V7.8h1.6L7.8,9.4L7.8,9.4z M7.8,7H6.3V5.3h1.6L7.8,7L7.8,7z
	 M10.5,11.9H8.7v-1.7h1.7C10.4,10.2,10.4,11.9,10.5,11.9z M10.5,9.4H8.7V7.8h1.7C10.4,7.8,10.4,9.4,10.5,9.4z M10.5,7H8.7V5.3h1.7
	C10.4,5.3,10.4,7,10.5,7z M10.5,4.5H3.7V2.1h6.6v2.4H10.5z"/>
</svg>
