<?xml version="1.0" encoding="utf-8"?>
<!-- Generator: Adobe Illustrator 17.1.0, SVG Export Plug-In . SVG Version: 6.00 Build 0)  -->
<!DOCTYPE svg PUBLIC "-//W3C//DTD SVG 1.1//EN" "http://www.w3.org/Graphics/SVG/1.1/DTD/svg11.dtd">
<svg version="1.1" id="Layer_1" xmlns="http://www.w3.org/2000/svg" xmlns:xlink="http://www.w3.org/1999/xlink" x="0px" y="0px"
	 width="24px" height="24px" viewBox="0 0 24 24" enable-background="new 0 0 24 24" xml:space="preserve">
<path id="colourise" d="M17.8,1.1H6.5C5,1.1,3.7,2.4,3.7,3.9v16.3C3.7,21.6,5,23,6.5,23h11c1.5,0,2.8-1.3,2.8-2.8V3.9
	C20.3,2.4,19.2,1.1,17.8,1.1z M9.5,20.2H6.8v-2.8h2.8L9.5,20.2L9.5,20.2z M9.5,16H6.8v-2.7h2.8L9.5,16L9.5,16z M9.5,12.1H6.8V9.2
	h2.8L9.5,12.1L9.5,12.1z M13.3,20.2h-2.5v-2.8h2.7L13.3,20.2L13.3,20.2z M13.3,16h-2.5v-2.7h2.7L13.3,16L13.3,16z M13.3,12.1h-2.5
	V9.2h2.7L13.3,12.1L13.3,12.1z M17.8,20.2h-3v-2.8h2.8C17.7,17.4,17.7,20.2,17.8,20.2z M17.8,16h-3v-2.7h2.8
	C17.7,13.4,17.7,16,17.8,16z M17.8,12.1h-3V9.2h2.8C17.7,9.2,17.7,12.1,17.8,12.1z M17.8,7.9H6.5v-4h11v4H17.8z"/>
</svg>
