<?xml version="1.0" encoding="utf-8"?>
<!-- Generator: Adobe Illustrator 17.1.0, SVG Export Plug-In . SVG Version: 6.00 Build 0)  -->
<!DOCTYPE svg PUBLIC "-//W3C//DTD SVG 1.1 Tiny//EN" "http://www.w3.org/Graphics/SVG/1.1/DTD/svg11-tiny.dtd">
<svg version="1.1" baseProfile="tiny" id="Layer_1" xmlns="http://www.w3.org/2000/svg" xmlns:xlink="http://www.w3.org/1999/xlink"
	 x="0px" y="0px" width="14px" height="14px" viewBox="0 0 14 14" xml:space="preserve">
<path id="colourise" d="M13,10.7L13,10.7c-0.1,0.3-0.3,0.5-0.7,0.5H1.6c-0.4,0-0.7-0.4-0.7-0.6c0-0.1,0-0.1,0-0.2v-7
	c0-0.1,0-0.2,0.1-0.2l3.7,3.3l2.4,2l2.3-1.9L13,3.4c0.1,0,0.1,0.1,0.1,0.1v7C13.1,10.5,13.1,10.6,13,10.7z M8.1,6.9L7,7.7L6,6.9
	L5.4,6.3L1.3,2.8c0.1,0,0.2,0,0.2,0h10.8c0.1,0,0.2,0,0.2,0l-4,3.6L8.1,6.9z"/>
</svg>
