<?xml version="1.0" encoding="utf-8"?>
<!-- Generator: Adobe Illustrator 17.1.0, SVG Export Plug-In . SVG Version: 6.00 Build 0)  -->
<!DOCTYPE svg PUBLIC "-//W3C//DTD SVG 1.1 Tiny//EN" "http://www.w3.org/Graphics/SVG/1.1/DTD/svg11-tiny.dtd">
<svg version="1.1" baseProfile="tiny" id="Layer_1" xmlns="http://www.w3.org/2000/svg" xmlns:xlink="http://www.w3.org/1999/xlink"
	 x="0px" y="0px" width="16px" height="16px" viewBox="0 0 16 16" xml:space="preserve">
<g id="colourise">
	<path d="M1.9,2.3h12.2c0.5,0,0.9,0.3,0.9,0.9S14.6,4,14.1,4H1.9C1.3,3.9,1,3.7,1,3.2S1.3,2.3,1.9,2.3z"/>
	<path d="M1.9,7.1h12.2C14.6,7.1,15,7.4,15,8c0,0.5-0.4,0.9-0.9,0.9H1.9C1.3,8.9,1,8.5,1,8S1.3,7.1,1.9,7.1z"/>
	<path d="M1.9,12h12.2c0.5,0,0.9,0.3,0.9,0.9s-0.4,0.9-0.9,0.9H1.9c-0.5,0-0.9-0.4-0.9-0.9S1.3,12,1.9,12z"/>
</g>
</svg>
