<?xml version="1.0" encoding="utf-8"?>
<!-- Generator: Adobe Illustrator 17.1.0, SVG Export Plug-In . SVG Version: 6.00 Build 0)  -->
<!DOCTYPE svg PUBLIC "-//W3C//DTD SVG 1.1 Tiny//EN" "http://www.w3.org/Graphics/SVG/1.1/DTD/svg11-tiny.dtd">
<svg version="1.1" baseProfile="tiny" id="Layer_1" xmlns="http://www.w3.org/2000/svg" xmlns:xlink="http://www.w3.org/1999/xlink"
	 x="0px" y="0px" width="14px" height="14px" viewBox="0 0 14 14" overflow="visible" xml:space="preserve">
<path id="colourise" d="M9.2,2.7V0.5C9.2,0.3,8.9,0,8.7,0C8.4,0,8.1,0.4,8.1,0.5v2.3H5C4.4,2.7,3.8,3.3,3.8,4v8.4
	c0,0.6,0.6,1.2,1.2,1.2h4c0.6,0,1.2-0.5,1.2-1.2V3.9C10.2,3.3,9.9,2.9,9.2,2.7z M5.2,12.6c-0.3,0-0.5-0.2-0.5-0.5s0.2-0.4,0.5-0.4
	s0.5,0.2,0.5,0.4C5.7,12.4,5.4,12.6,5.2,12.6z M5.2,11c-0.3,0-0.5-0.2-0.5-0.4c0-0.3,0.2-0.5,0.5-0.5s0.5,0.2,0.5,0.5l0,0
	C5.7,10.8,5.4,11,5.2,11z M4.7,8.9c0-0.3,0.2-0.5,0.5-0.5s0.5,0.2,0.5,0.5S5.5,9.4,5.2,9.4C4.9,9.3,4.7,9.2,4.7,8.9z M6.9,12.6
	c-0.3,0-0.5-0.2-0.5-0.5s0.2-0.4,0.5-0.4c0.3,0,0.5,0.2,0.5,0.5C7.4,12.4,7.3,12.6,6.9,12.6z M6.9,11c-0.3,0-0.5-0.2-0.5-0.4
	c0-0.3,0.2-0.5,0.5-0.5c0.3,0,0.5,0.2,0.5,0.5C7.4,10.8,7.3,11,6.9,11z M6.9,9.3c-0.3,0-0.5-0.2-0.5-0.5s0.2-0.4,0.5-0.4
	c0.3,0,0.5,0.1,0.5,0.4C7.4,9.2,7.3,9.3,6.9,9.3z M5.7,7.5c-0.5,0-1-0.3-1-0.9v-2c0-0.4,0.4-0.9,1-0.9h2.5c0.4,0,0.9,0.4,0.9,0.9v2
	c0,0.4-0.4,0.9-0.9,0.9H5.7L5.7,7.5z M8.8,8.3c0.3,0,0.5,0.2,0.5,0.4c0,0.3-0.2,0.5-0.5,0.5S8.3,9.1,8.3,8.8
	C8.3,8.6,8.5,8.3,8.8,8.3z M8.8,12.6c-0.3,0-0.4-0.2-0.4-0.5s0.2-0.4,0.4-0.4s0.5,0.2,0.5,0.4C9.4,12.4,9.1,12.6,8.8,12.6z M8.8,11
	c-0.3,0-0.4-0.2-0.4-0.4c0-0.3,0.2-0.5,0.4-0.5s0.5,0.2,0.5,0.5C9.3,10.8,9.1,11,8.8,11z"/>
</svg>
