<?xml version="1.0" encoding="utf-8"?>
<!DOCTYPE svg PUBLIC "-//W3C//DTD SVG 1.1//EN" "http://www.w3.org/Graphics/SVG/1.1/DTD/svg11.dtd">
<svg version="1.1" id="Layer_1" xmlns="http://www.w3.org/2000/svg" xmlns:xlink="http://www.w3.org/1999/xlink" x="0px" y="0px"
	 width="116px" height="72px" viewBox="2.5 -3.5 116 72" enable-background="new 2.5 -3.5 116 72" xml:space="preserve">
<defs>
<linearGradient id="grad1" x1="0%" y1="0%" x2="100%" y2="0%">
	<stop  offset="0" style="stop-color:#E04A50"/>
	<stop  offset="1" style="stop-color:#E4D351"/>
</linearGradient>
<linearGradient id="grad2" x1="0%" y1="0%" x2="100%" y2="0%">
	<stop  offset="0" style="stop-color:#E4D351"/>
	<stop  offset="0.3333" style="stop-color:#00AE95"/>
	<stop  offset="0.6667" style="stop-color:#0089BA"/>
	<stop  offset="1" style="stop-color:#1D4E9E"/>
</linearGradient>
</defs>
<g transform="translate(-2.5,6)">
	<path fill="url(#grad1)" d="M33.372,37.184c4.883,0,7.43,4.436,9.775,9.133c0.586,1.176,1.159,2.365,1.758,3.51
		c0.596,1.141,1.215,2.234,1.889,3.215c1.222,1.773,2.626,3.178,4.414,3.818c0.186,0.066,0.167,0.27-0.029,0.301
		c-0.343,0.055-0.698,0.082-1.069,0.082c-8.738,0.006-17.646-15.555-19.648-19.271c-0.044-0.082-0.01-0.181,0.074-0.218
		C31.386,37.387,32.325,37.184,33.372,37.184z"/>
	<path fill="url(#grad2)" d="M65.878,48.062c2.021-2.939,3.878-6.223,5.667-9.648c1.79-3.426,3.512-7,5.271-10.521
		C83.85,13.799,91.449,0.5,106.093,0.5h0.039c3.271,0,6.187,0.663,8.825,1.85c0.084,0.036,0.117,0.135,0.074,0.213
		C109.335,13.177,82.38,60.678,55.94,60.66c-1.558,0-3.027-0.164-4.425-0.475c-0.192-0.043-0.198-0.246-0.01-0.303
		C57.415,58.17,61.96,53.756,65.878,48.062z"/>
	<g fill="#404040">
		<path d="M11.95,27.858L8.171,19.9v7.958H5V13.371h3.359l3.317,7.496v-7.496h3.191v14.487H11.95z"/>
		<path d="M16.005,27.858v-2.623l5.02-9.072h-4.771l0.005-2.792h8.839v2.625l-5.018,9.072h5.049l0.053,2.791
			L16.005,27.858L16.005,27.858z"/>
		<path d="M34.157,28.133c-3.675,0-5.522-2.918-5.522-7.497c0-4.577,1.892-7.538,5.564-7.538
			c3.652,0,5.501,2.918,5.501,7.496C39.7,25.172,37.811,28.133,34.157,28.133z M34.178,15.869c-1.469,0-1.994,1.785-1.994,4.745
			c0,2.96,0.547,4.746,1.994,4.746c1.428,0,1.976-1.785,1.976-4.746C36.154,17.653,35.585,15.869,34.178,15.869z"/>
		<path d="M45.807,27.858v-7.034c0-0.441-0.229-0.756-0.672-0.756c-0.397,0-0.817,0.231-1.218,0.546v7.244h-3.044
			V17.57h2.582l0.188,1.092c0.734-0.693,1.638-1.302,2.729-1.302c1.701,0,2.479,0.945,2.479,2.625v7.874L45.807,27.858L45.807,27.858
			z"/>
		<path d="M59.969,27.858l-0.645-3.023h-3.191l-0.65,3.023h-3.424l3.76-14.529h4.136l3.479,14.529H59.969z
			 M57.749,17.255l-1.05,4.892h2.078L57.749,17.255z"/>
		<path d="M65.486,16.457c-0.967,0-1.723-0.756-1.723-1.722c0-0.966,0.756-1.701,1.723-1.701
			c0.943,0,1.722,0.735,1.722,1.701C67.208,15.701,66.432,16.457,65.486,16.457z M63.954,27.858V17.57h3.045v10.288H63.954z"/>
		<path d="M71.404,21.58v6.278h-3.045V17.57h2.562l0.229,1.491c0.547-0.882,1.938-1.874,3.242-1.701
			c0,0,0.439,0.034,0.974,0.253l-1.173,3.062c-0.155-0.078-0.358-0.103-0.358-0.103C72.666,20.594,71.835,21.01,71.404,21.58z"/>
		<path d="M29.526,34.477v-4.295h1.063v4.295H29.526z"/>
		<path d="M32.024,32.784v1.692h-0.94v-3.051h0.822l0.1,0.604c0.188-0.349,0.442-0.636,0.891-0.666l0.155,0.959
			C32.598,32.354,32.255,32.536,32.024,32.784z"/>
		<path d="M33.925,31.028c-0.299,0-0.535-0.199-0.535-0.504c0-0.312,0.236-0.511,0.535-0.511
			c0.307,0,0.535,0.199,0.535,0.511C34.46,30.829,34.23,31.028,33.925,31.028z M33.452,34.477v-3.051h0.946v3.051H33.452z"/>
		<path d="M35.911,32.784v1.692h-0.94v-3.051h0.822l0.1,0.604c0.188-0.349,0.442-0.636,0.892-0.666l0.155,0.959
			C36.484,32.354,36.142,32.536,35.911,32.784z"/>
		<path d="M38.907,34.477l-0.062-0.379c-0.249,0.263-0.542,0.441-0.959,0.441c-0.484,0-0.827-0.293-0.827-0.848
			c0-0.715,0.547-1.051,1.742-1.156v-0.057c0-0.269-0.147-0.387-0.46-0.387c-0.343,0-0.66,0.088-0.982,0.229l-0.112-0.709
			c0.349-0.144,0.74-0.236,1.238-0.236c0.841,0,1.258,0.279,1.258,1.06v2.041L38.907,34.477L38.907,34.477z M38.801,32.989
			c-0.641,0.101-0.814,0.312-0.814,0.58c0,0.192,0.117,0.299,0.293,0.299c0.181,0,0.354-0.082,0.521-0.229V32.989z"/>
		<path d="M42.134,34.477v-1.909c0-0.22-0.087-0.369-0.312-0.369c-0.182,0-0.35,0.106-0.518,0.274v2.004h-0.939
			v-3.051h0.828l0.067,0.418c0.274-0.268,0.567-0.479,0.953-0.479c0.566,0,0.865,0.354,0.865,0.946v2.166H42.134z"/>
		<path d="M44.957,35.609c-0.486,0-0.854-0.094-1.184-0.226l0.137-0.709c0.28,0.144,0.609,0.236,0.928,0.236
			c0.411,0,0.654-0.181,0.654-0.592v-0.26c-0.199,0.19-0.455,0.385-0.815,0.385c-0.629,0-1.103-0.467-1.103-1.457
			c0-1.096,0.609-1.6,1.544-1.6c0.492,0,0.953,0.088,1.312,0.219v2.682C46.432,35.157,45.934,35.609,44.957,35.609z M45.492,32.206
			c-0.125-0.045-0.206-0.057-0.35-0.057c-0.366,0-0.623,0.219-0.623,0.797c0,0.485,0.188,0.703,0.455,0.703
			c0.192,0,0.354-0.125,0.518-0.294V32.206L45.492,32.206z"/>
		<path d="M47.573,31.028c-0.299,0-0.535-0.199-0.535-0.504c0-0.312,0.236-0.511,0.535-0.511
			c0.306,0,0.535,0.199,0.535,0.511C48.108,30.829,47.879,31.028,47.573,31.028z M47.101,34.477v-3.051h0.946v3.051H47.101z"/>
		<path d="M52.107,31.085v3.394h-1.071v-3.394h-1.189v-0.901h3.399l0.148,0.901H52.107z"/>
		<path d="M55.712,33.188h-1.83c0.05,0.48,0.336,0.666,0.747,0.666c0.336,0,0.666-0.123,1.002-0.315l0.094,0.66
			c-0.33,0.211-0.733,0.342-1.214,0.342c-0.915,0-1.568-0.485-1.568-1.573c0-0.996,0.609-1.603,1.438-1.603
			c0.935,0,1.352,0.696,1.352,1.582C55.73,33.04,55.725,33.139,55.712,33.188z M54.355,31.975c-0.263,0-0.448,0.23-0.479,0.697h0.958
			C54.804,32.212,54.642,31.975,54.355,31.975z"/>
		<path d="M61.568,34.477L61.38,31.62l-0.813,2.863H59.57l-0.815-2.863l-0.187,2.856h-0.929l0.312-4.295h1.376
			l0.834,2.957l0.841-2.957h1.338l0.312,4.295L61.568,34.477L61.568,34.477z"/>
		<path d="M64.555,34.54c-0.841,0-1.457-0.604-1.457-1.582s0.623-1.594,1.463-1.594c0.85,0,1.472,0.61,1.472,1.588
			C66.029,33.932,65.4,34.54,64.555,34.54z M64.561,32.139c-0.358,0-0.555,0.315-0.555,0.813c0,0.492,0.199,0.828,0.555,0.828
			c0.36,0,0.562-0.33,0.562-0.822C65.12,32.469,64.921,32.139,64.561,32.139z"/>
		<path d="M67.773,34.52c-0.652,0-1.106-0.235-1.106-1.014v-1.313h-0.405v-0.767h0.405v-0.908l0.935-0.143v1.051
			h0.578l0.118,0.767h-0.696v1.163c0,0.25,0.117,0.361,0.373,0.361c0.08,0,0.155-0.012,0.227-0.031l0.115,0.773
			C68.167,34.503,68.023,34.52,67.773,34.52z"/>
		<path d="M70.628,34.477l-0.067-0.416c-0.278,0.273-0.572,0.479-0.951,0.479c-0.566,0-0.865-0.351-0.865-0.938
			v-2.174h0.938v1.912c0,0.217,0.096,0.372,0.317,0.372c0.181,0,0.349-0.104,0.517-0.272v-2.012h0.94v3.051h-0.828V34.477
			L70.628,34.477z"/>
	</g>
</g>
	
</svg>
