<?xml version="1.0" encoding="utf-8"?>
<!-- Generator: Adobe Illustrator 17.1.0, SVG Export Plug-In . SVG Version: 6.00 Build 0)  -->
<!DOCTYPE svg PUBLIC "-//W3C//DTD SVG 1.1 Tiny//EN" "http://www.w3.org/Graphics/SVG/1.1/DTD/svg11-tiny.dtd">
<svg version="1.1" baseProfile="tiny" id="Layer_1" xmlns="http://www.w3.org/2000/svg" xmlns:xlink="http://www.w3.org/1999/xlink"
	 x="0px" y="0px" width="17px" height="17px" viewBox="-0.5 -0.5 17 17" overflow="visible" xml:space="preserve">
<path id="colourise" d="M13.6,7.2c-0.2,0-0.6-0.1-1-0.1V5.6C12.6,3,10.6,1,8,1S3.4,3,3.4,5.6v1.6c-0.4,0-0.6,0.1-1,0.1v7
	c0,0.3,0.2,0.5,0.6,0.5h0.2l0,0c0,0,0,0,0.1,0C4.3,15,5.7,15,8,15l0,0h0.1l0,0l0,0c2.2,0,3.7-0.1,4.7-0.1c0,0,0,0,0.1,0l0,0h0.1
	c0.4-0.1,0.5-0.4,0.5-0.5L13.6,7.2L13.6,7.2z M5.3,5.6c0-1.5,1.3-2.8,2.8-2.8s2.8,1.3,2.8,2.8v1.5c-0.4,0-0.9,0-1.2,0H6.5
	c-0.4,0-1,0-1.3,0C5.3,7.1,5.3,5.6,5.3,5.6z"/>
</svg>
