<?xml version="1.0" encoding="utf-8"?>
<!-- Generator: Adobe Illustrator 17.1.0, SVG Export Plug-In . SVG Version: 6.00 Build 0)  -->
<!DOCTYPE svg PUBLIC "-//W3C//DTD SVG 1.1 Tiny//EN" "http://www.w3.org/Graphics/SVG/1.1/DTD/svg11-tiny.dtd">
<svg version="1.1" baseProfile="tiny" id="Layer_1" xmlns="http://www.w3.org/2000/svg" xmlns:xlink="http://www.w3.org/1999/xlink"
	 x="0px" y="0px" width="14px" height="14px" viewBox="0 0 14 14" xml:space="preserve">
<g id="colourise">
	<path d="M7,2.8c1.2,0.8,2.5,1.7,3.7,2.5l0,0C9.4,7,8.2,8.8,7.1,10.5L7,10.6c-0.2,0.1-0.4,0.1-0.6,0c-0.4-0.1-0.8-0.2-1.2-0.5
		C4.7,9.8,4.2,9.4,3.8,9C3.6,8.7,3.5,8.6,3.4,8.3c0-0.1,0-0.1,0-0.2s0-0.2,0.1-0.3C4.6,6.3,5.7,4.6,7,2.8L7,2.8z"/>
	<path d="M11.2,4.6C10,3.8,8.7,2.9,7.5,2.1c0,0,0,0,0-0.1C7.7,1.8,7.9,1.5,8,1.2C8.3,0.9,8.7,0.8,9,1c0.2,0.1,0.4,0.2,0.5,0.3
		c0.7,0.4,1.3,1,1.9,1.4c0.3,0.2,0.4,0.3,0.4,0.7c0,0.1,0,0.2-0.1,0.4C11.6,4.1,11.4,4.3,11.2,4.6L11.2,4.6z"/>
	<path d="M6.4,11.4L6.4,11.4c-0.1,0.1-0.2,0.1-0.2,0.2c-1,0.5-1.9,1-3,1.3C3,13,2.8,13.1,2.7,13.1H2.6c-0.1,0-0.1,0-0.2-0.1
		c-0.1,0-0.1,0-0.1-0.2c0-0.3,0-0.6,0-0.8c0-0.5,0.1-1.1,0.1-1.6c0.1-0.5,0.1-1,0.2-1.4c0,0.2,0.2,0.4,0.4,0.6c0.3,0.4,0.6,0.7,1,1
		c0.3,0.3,0.7,0.5,1.4,0.8C5.8,11.5,6.4,11.4,6.4,11.4z"/>
</g>
</svg>
