<?xml version="1.0" encoding="utf-8"?>
<!-- Generator: Adobe Illustrator 17.1.0, SVG Export Plug-In . SVG Version: 6.00 Build 0)  -->
<!DOCTYPE svg PUBLIC "-//W3C//DTD SVG 1.1 Tiny//EN" "http://www.w3.org/Graphics/SVG/1.1/DTD/svg11-tiny.dtd">
<svg version="1.1" baseProfile="tiny" id="Layer_1" xmlns="http://www.w3.org/2000/svg" xmlns:xlink="http://www.w3.org/1999/xlink"
	 x="0px" y="0px" width="17px" height="17px" viewBox="-0.5 -0.5 17 17" xml:space="preserve">
<path id="colourise" d="M15.1,13.9l-4.5-4.6c0.7-0.8,1.1-2,1.1-3.2c0-3.1-2.5-5.6-5.6-5.6S0.6,3,0.6,6.1s2.5,5.6,5.6,5.6
	c1.2,0,2.3-0.4,3.3-1.1l4.3,4.5c0.4,0.4,1,0.5,1.4,0.1C15.5,14.7,15.5,14.2,15.1,13.9z M6.2,9.9c-2,0-3.7-1.7-3.7-3.7
	s1.7-3.7,3.7-3.7s3.7,1.7,3.7,3.7S8.2,9.9,6.2,9.9z"/>
</svg>
