<?xml version="1.0" encoding="utf-8"?>
<!-- Generator: Adobe Illustrator 17.1.0, SVG Export Plug-In . SVG Version: 6.00 Build 0)  -->
<!DOCTYPE svg PUBLIC "-//W3C//DTD SVG 1.1 Tiny//EN" "http://www.w3.org/Graphics/SVG/1.1/DTD/svg11-tiny.dtd">
<svg version="1.1" baseProfile="tiny" id="Layer_1" xmlns="http://www.w3.org/2000/svg" xmlns:xlink="http://www.w3.org/1999/xlink"
	 x="0px" y="0px" width="14px" height="14px" viewBox="0 0 14 14" xml:space="preserve">
<g id="colourise">
	<path d="M0.3,4.6C0.5,4.1,0.8,3.5,1.4,3C2,2.4,2.8,2,3.6,1.8c1-0.3,2-0.4,3-0.3c0.9,0.1,1.6,0.3,2.3,0.7s1.2,0.8,1.7,1.5
		c0.3,0.6,0.6,1.1,0.6,1.8c0,0.6-0.2,1.2-0.5,1.8C10.3,8,9.8,8.6,9.1,8.9C8.2,9.5,7.3,9.7,6.3,9.8c-0.9,0.1-1.8,0-2.7-0.3l0,0
		c-0.5,0.4-1.1,0.8-1.8,0.9c-0.3,0-0.5,0-0.9,0c-0.1,0-0.2,0-0.3-0.1c0.1-0.1,0.1-0.2,0.2-0.3l0.3-0.2c0.3-0.3,0.4-0.4,0.7-0.7
		c0.1-0.2,0.3-0.3,0.4-0.4c0,0,0,0-0.1-0.1C1.7,8.3,1.4,8,1,7.7C0.7,7.2,0.4,6.6,0.2,6C0.2,6.1,0,5.4,0.3,4.6z"/>
	<path d="M12.1,10.8c0.1,0.1,0.3,0.3,0.4,0.5c0.2,0.3,0.4,0.5,0.7,0.7l0.3,0.3c0.1,0.1,0.1,0.1,0,0.2s-0.2,0.1-0.3,0.1
		c-0.3,0-0.4,0-0.7-0.1c-0.8-0.2-1.5-0.4-2.1-1.1h-0.1c-0.7,0.2-1.5,0.3-2.3,0.3c-0.9,0-1.8-0.3-2.7-0.7c-0.3-0.1-0.6-0.3-0.7-0.4
		c0.1,0,0.2,0,0.2,0c1.2,0.1,2.5,0,3.7-0.4c0.9-0.3,1.8-0.8,2.4-1.5c0.5-0.5,1-1.1,1.1-1.8c0.3-0.7,0.4-1.4,0-2.1V4.5l0,0
		c0.6,0.3,1.1,0.9,1.5,1.5c0.6,1.1,0.6,2.3-0.1,3.3C12.8,10.3,12.1,10.8,12.1,10.8z"/>
</g>
</svg>
